<?xml version="1.0" standalone="no"?>
<!DOCTYPE svg PUBLIC "-//W3C//DTD SVG 20010904//EN"
 "http://www.w3.org/TR/2001/REC-SVG-20010904/DTD/svg10.dtd">
<svg version="1.0" xmlns="http://www.w3.org/2000/svg"
 width="690.000000pt" height="690.000000pt" viewBox="0 0 690.000000 690.000000"
 preserveAspectRatio="xMidYMid meet">

<g transform="translate(0.000000,690.000000) scale(0.100000,-0.100000)"
fill="#000000" stroke="none">
<path d="M1060 5913 c0 -4 43 -84 95 -179 l95 -172 0 -1394 c0 -1541 -4 -1439
65 -1585 102 -218 360 -500 840 -922 41 -36 375 -315 451 -377 34 -27 130
-105 214 -174 543 -444 613 -500 625 -500 4 0 50 35 103 78 95 76 348 280 567
458 446 360 642 524 801 671 322 299 526 554 672 839 l60 119 -25 30 c-41 49
-304 346 -408 461 -5 6 -39 44 -75 85 -36 41 -85 97 -110 124 -25 28 -74 82
-108 121 l-62 71 182 134 c100 74 228 168 284 209 56 41 188 137 293 213 l191
138 -2 777 -3 777 -1336 3 -1337 2 -299 -387 c-165 -214 -373 -484 -462 -600
-90 -117 -166 -213 -170 -213 -3 0 -3 267 0 592 4 326 5 596 2 601 -5 9 -1143
9 -1143 0z m3693 -683 l227 0 0 -305 0 -305 -212 -158 c-211 -157 -489 -360
-518 -378 -8 -5 -159 -11 -336 -14 l-321 -5 151 -181 c238 -285 412 -494 573
-689 82 -99 247 -298 366 -443 l218 -262 -67 -88 c-97 -126 -108 -138 -197
-230 l-81 -84 -19 24 c-11 12 -34 41 -52 63 -27 33 -233 285 -360 440 -17 22
-63 78 -101 125 -61 77 -280 341 -422 510 -71 85 -111 133 -217 260 -47 58
-98 119 -112 135 -37 43 -229 271 -272 324 -20 24 -64 77 -98 117 -35 40 -63
77 -63 82 0 5 55 75 123 154 67 80 268 319 447 532 l325 387 395 -5 c217 -3
497 -6 623 -6z m-2343 -1827 c151 -179 623 -734 760 -893 59 -69 221 -258 359
-420 139 -162 293 -342 343 -399 64 -73 89 -107 82 -116 -8 -11 -473 -403
-510 -430 -9 -7 -31 8 -81 55 -76 72 -102 96 -282 255 -356 314 -430 383 -604
558 -151 151 -211 233 -250 342 -42 118 -47 186 -47 651 l0 436 53 49 c28 27
54 49 57 49 3 0 57 -62 120 -137z"/>
</g>
</svg>
