<?xml version="1.0" encoding="UTF-8"?>
<svg version="1.1" xmlns="http://www.w3.org/2000/svg" width="690" height="690">
<path d="M0 0 C15.23763064 -0.02332961 30.47526046 -0.04097948 45.71290493 -0.05181217 C52.78753187 -0.056975 59.86214774 -0.06401744 66.93676758 -0.07543945 C73.75778878 -0.08644681 80.57879844 -0.09227618 87.39982796 -0.09487724 C90.00866948 -0.09673205 92.61751033 -0.1003537 95.22634697 -0.10573006 C98.86632552 -0.11293643 102.50625575 -0.11399111 106.14624023 -0.11352539 C107.23668137 -0.11712067 108.3271225 -0.12071594 109.4506073 -0.12442017 C110.43643799 -0.1230455 111.42226868 -0.12167084 112.43797302 -0.12025452 C113.73078768 -0.12163721 113.73078768 -0.12163721 115.04971981 -0.12304783 C117 0 117 0 118 1 C118.08362436 2.50595047 118.09693336 4.0158637 118.08229065 5.52406311 C118.07525116 6.50147964 118.06821167 7.47889618 118.06095886 8.4859314 C118.04801285 9.56702179 118.03506683 10.64811218 118.02172852 11.76196289 C118.01212097 12.8935231 118.00251343 14.02508331 117.99261475 15.19093323 C117.95948973 18.95156822 117.91920911 22.71209188 117.87890625 26.47265625 C117.85461832 29.07197165 117.83077411 31.67129123 117.80735779 34.27061462 C117.75083007 40.42591793 117.68980873 46.58116184 117.62663645 52.73640007 C117.55498249 59.74229924 117.48902911 66.7482484 117.42356598 73.75420773 C117.28874198 88.16953636 117.14672198 102.58478781 117 117 C119.764614 114.28868148 122.03699989 111.66059523 124.1875 108.4375 C127.43763289 103.70751937 130.97032707 99.30533808 134.6328125 94.890625 C137.46927238 91.42696112 140.19702787 87.88803831 142.91503906 84.33105469 C146.6007622 79.50953281 150.3291818 74.72223233 154.0625 69.9375 C158.76474371 63.90670385 163.39873343 57.83575872 167.95703125 51.6953125 C170.72989832 48.03703664 173.63471096 44.49268738 176.56640625 40.9609375 C178.19672595 39.13575686 178.19672595 39.13575686 178 37 C179.16351172 35.81529499 180.33264989 34.6355816 181.52978516 33.48486328 C184.15492252 30.83357045 186.39653781 27.87678891 188.6875 24.9375 C189.17283203 24.32583984 189.65816406 23.71417969 190.15820312 23.08398438 C192.46091504 20.14604159 194.39968748 17.38706922 196 14 C197.66666667 12.33333333 199.33333333 10.66666667 201 9 C201.46770532 8.27223156 201.93541063 7.54446311 202.41728884 6.79464108 C206.51671164 0.51119977 206.51671164 0.51119977 210.40766895 -0.82977784 C213.32357974 -1.13474583 216.12294748 -1.15716418 219.05406189 -1.08229065 C220.15851845 -1.08998047 221.26297501 -1.0976703 222.40089995 -1.10559314 C226.09795378 -1.12040623 229.79132275 -1.07094672 233.48803711 -1.02172852 C236.13936636 -1.01918952 238.79047068 -1.02021907 241.44177246 -1.02571106 C247.14750676 -1.03042399 252.85231284 -1.00225558 258.55781364 -0.95157051 C266.80677941 -0.87833827 275.05529762 -0.85497881 283.30455322 -0.84367859 C296.68904821 -0.8239945 310.07304877 -0.76413783 323.45727539 -0.67895508 C336.45659923 -0.59630818 349.45578864 -0.53262015 362.45532227 -0.49438477 C363.65781638 -0.490838 363.65781638 -0.490838 364.88460331 -0.48721958 C368.9064232 -0.475474 372.92824403 -0.46410069 376.95006549 -0.45291245 C410.30040219 -0.3596543 443.65014043 -0.20117383 477 0 C477.37443706 20.52305657 477.65623156 41.04554699 477.82899475 61.57133102 C477.91136048 71.10291745 478.02355633 80.63237698 478.20703125 90.16259766 C478.36695153 98.47331266 478.46983136 106.78248726 478.50541592 115.09469819 C478.52620819 119.49343578 478.57472787 123.88776862 478.69168091 128.28508759 C479.43142069 157.19484859 479.43142069 157.19484859 473.52050781 163.75891113 C470.26559891 166.53906024 466.83976112 168.49034824 462.91046143 170.16022491 C460.25318823 171.32827353 457.97921634 172.94121157 455.625 174.625 C454.62339844 175.26308594 454.62339844 175.26308594 453.6015625 175.9140625 C451.83787254 177.03651158 451.83787254 177.03651158 450 179 C448.76439438 179.85453099 447.51155161 180.68425986 446.25 181.5 C441.94535247 184.34163007 437.71031151 187.27118849 433.5 190.25 C432.87641602 190.68634766 432.25283203 191.12269531 431.61035156 191.57226562 C428.28945406 193.81107764 428.28945406 193.81107764 426 197 C422.40846211 199.16847571 418.78323204 201.18404862 415 203 C415 203.66 415 204.32 415 205 C414.05125 205.495 413.1025 205.99 412.125 206.5 C407.73539197 208.97757017 403.98801723 212.15860116 400.13671875 215.390625 C398 217 398 217 396 217 C396 217.66 396 218.32 396 219 C394.20963542 219.9765625 392.41927083 220.953125 390.62890625 221.9296875 C388.83381685 222.91410024 388.83381685 222.91410024 388 225 C387.01 225.33 386.02 225.66 385 226 C386.5813062 229.73922129 388.93230398 232.29649737 391.6875 235.25 C392.60078875 236.23779303 393.51354769 237.22607617 394.42578125 238.21484375 C395.27527344 239.13394531 396.12476563 240.05304688 397 241 C400.30360814 244.69226792 403.53202826 248.4485086 406.74609375 252.21875 C412.32573819 258.76037099 417.96177673 265.22111605 423.7734375 271.55859375 C426.24906367 274.27309613 428.65941255 277.03783638 431.0625 279.81640625 C432.64414914 281.59895034 434.24830201 283.34883441 435.875 285.08984375 C436.37974854 285.6319751 436.88449707 286.17410645 437.40454102 286.73266602 C438.41381264 287.8139481 439.42723003 288.89137769 440.44506836 289.96459961 C444 293.77838852 444 293.77838852 444 296 C444.66 296 445.32 296 446 296 C447.29041914 297.44764262 448.50767134 298.96089149 449.6875 300.5 C452.8535927 304.60548284 456.1627876 308.3710722 459.84765625 312.015625 C461 314 461 314 460.90234375 316.76953125 C459.84230482 320.56456241 458.30235817 323.95319799 456.5 327.4375 C456.14180176 328.13705811 455.78360352 328.83661621 455.41455078 329.55737305 C438.67764605 361.81494322 413.78662627 391.49345339 386.18359375 415.09765625 C383.99153554 417.00737422 381.85563524 418.97111496 379.72485352 420.94873047 C373.67944194 426.55732097 367.41913777 431.82035037 361 437 C356.39468735 440.48808668 356.39468735 440.48808668 353 445 C352.01 445.33 351.02 445.66 350 446 C349.67 446.66 349.34 447.32 349 448 C347.33767085 449.00719391 345.66985684 450.00533629 344 451 C341.59651165 452.75037422 339.26793778 454.59143741 336.9375 456.4375 C336.32583984 456.91509766 335.71417969 457.39269531 335.08398438 457.88476562 C331.85018697 460.43334758 328.89596097 463.06675198 326 466 C324.66608703 467.04716009 323.31207146 468.06931253 321.9375 469.0625 C319.40005444 470.89861704 317.2025224 472.78053512 315 475 C313.57752023 476.18493403 312.13790999 477.34942266 310.6875 478.5 C309.34945312 479.56347656 309.34945312 479.56347656 307.984375 480.6484375 C305.93581821 482.26261445 303.88457449 483.8725319 301.828125 485.4765625 C294.59438894 491.12361867 287.46662243 496.88129691 280.39501953 502.73022461 C268.75480378 512.34885713 256.91563042 521.72521691 245 531 C244.29230469 531.61746094 243.58460938 532.23492188 242.85546875 532.87109375 C241 534 241 534 239.1015625 533.97265625 C236.09050153 532.57906112 233.88310589 530.60479466 231.375 528.4375 C230.3014947 527.51999791 229.22726573 526.60334193 228.15234375 525.6875 C227.35352783 525.00300781 227.35352783 525.00300781 226.53857422 524.3046875 C224.37439236 522.46949425 222.16005068 520.70131622 219.9375 518.9375 C214.58199446 514.67704991 209.29050305 510.34073532 204 506 C202.16689838 504.49971683 200.33356573 502.99971592 198.5 501.5 C197.13681641 500.38431641 197.13681641 500.38431641 195.74609375 499.24609375 C193.92671038 497.7579779 192.10640881 496.27098388 190.28515625 494.78515625 C189.38667969 494.05167969 188.48820313 493.31820313 187.5625 492.5625 C186.21865234 491.46615234 186.21865234 491.46615234 184.84765625 490.34765625 C182.8009426 488.6603107 180.76830239 486.9622513 178.74609375 485.24609375 C178.20460693 484.788396 177.66312012 484.33069824 177.10522461 483.85913086 C175.57766395 482.56575745 174.05434024 481.26738484 172.53125 479.96875 C170.0910055 477.8454351 170.0910055 477.8454351 167 477 C166 475.66666667 165 474.33333333 164 473 C163.01 472.67 162.02 472.34 161 472 C159.30731907 470.35976013 157.64534729 468.68771675 156 467 C153.80922256 465.01734297 151.56292529 463.10196718 149.3125 461.1875 C148.69310547 460.65833984 148.07371094 460.12917969 147.43554688 459.58398438 C143.24005256 456.01455346 138.97179651 452.55323938 134.64453125 449.14453125 C130.64769567 445.90337507 126.77250739 442.52075019 122.90820312 439.12304688 C120.46722875 437.00009659 118.18627295 435.11031157 115.39453125 433.45703125 C112.45177947 431.6664172 110.38884058 429.47919007 108 427 C105.91878632 425.01678222 103.80321363 423.07130707 101.6875 421.125 C101.10919434 420.59181152 100.53088867 420.05862305 99.93505859 419.50927734 C97.03200502 416.8403541 94.11286025 414.19915653 91.125 411.625 C78.38260432 400.57621387 65.65973444 388.8880782 54.734375 376.015625 C51.82105208 372.62987134 48.7594107 369.37659317 45.72265625 366.1015625 C44 364 44 364 44 362 C43.01 361.67 42.02 361.34 41 361 C40.33333333 359.66666667 39.66666667 358.33333333 39 357 C38.360625 356.566875 37.72125 356.13375 37.0625 355.6875 C34.66796327 353.72833359 33.94980896 351.82380672 32.859375 348.9765625 C31.56689186 346.00385128 29.78113721 343.39114702 27.98828125 340.69921875 C27 339 27 339 27 337 C26.34 337 25.68 337 25 337 C13.17000976 306.61227697 17.78899215 269.0217538 17.95173035 237.07794634 C17.98971978 229.41319912 18.00734595 221.74841907 18.02497864 214.08360291 C18.03185149 211.21045366 18.03888401 208.33730483 18.04598713 205.46415615 C18.04864461 204.38844573 18.04864461 204.38844573 18.05135578 203.29100378 C18.07169771 195.19651316 18.09689866 187.10203967 18.1237793 179.00756836 C18.12744313 177.9020736 18.12744313 177.9020736 18.13118098 176.77424561 C18.17140956 164.76354018 18.22330324 152.75290258 18.27749296 140.74225337 C18.3329304 128.3472813 18.36909316 115.95234491 18.3891018 103.55726522 C18.40213767 95.94140374 18.43108127 88.32593844 18.48087535 80.71022695 C18.51746934 74.89257024 18.52803439 69.07509288 18.52895164 63.25733185 C18.53352012 60.8756604 18.54668716 58.49398749 18.56911087 56.11241722 C18.59849351 52.86060141 18.59695258 49.61019458 18.58781433 46.35829163 C18.611707 44.94834941 18.611707 44.94834941 18.63608235 43.50992352 C18.5801122 37.87488444 17.58663534 34.36639086 14.27450067 29.77303308 C12.10812883 26.75926539 10.61341499 23.39464108 9 20.0625 C6.43713721 14.83302215 3.80095438 9.70291375 0.8125 4.69921875 C0 3 0 3 0 0 Z M258.12094879 83.18058395 C256.22862244 86.25202571 253.82197371 88.86845 251.4375 91.5625 C250.52742877 92.63458538 249.61956544 93.70855262 248.71484375 94.78515625 C246.43723014 97.48269718 244.1575178 100.17845131 241.87670898 102.87329102 C240.96068121 103.95566254 240.04482764 105.03818153 239.12915039 106.12084961 C236.81543212 108.85636732 234.49956105 111.59001211 232.1796875 114.3203125 C227.94920376 119.30314347 223.7414632 124.29702715 219.625 129.375 C215.46140773 134.49368154 211.14484186 139.46772641 206.80834961 144.43945312 C202.7981026 149.04814785 198.91199191 153.73535263 195.078125 158.4921875 C192.32075221 161.81969376 189.39796103 164.98149942 186.43359375 168.125 C184.69630566 170.00382613 184.69630566 170.00382613 185 173 C183.02 173.99 183.02 173.99 181 175 C182.52726097 180.05244825 185.60579078 183.28813115 189.0625 187.125 C190.2525106 188.47028611 191.44130855 189.81664585 192.62890625 191.1640625 C193.20914551 191.82051758 193.78938477 192.47697266 194.38720703 193.15332031 C196.48472132 195.55501545 198.49863095 198.01785514 200.5 200.5 C204.09328604 204.94032216 207.8072031 209.2596559 211.5625 213.5625 C215.80656042 218.42749453 219.92910961 223.35094288 223.921875 228.42578125 C226.4817107 231.59670554 229.14413668 234.67037297 231.8125 237.75 C235.91008368 242.48270269 239.85579335 247.2997542 243.6875 252.25 C247.5585469 257.24970031 251.61060247 261.98898035 255.890625 266.6484375 C258.70249494 269.78315176 261.2991744 273.06569433 263.90625 276.37109375 C266.62604782 279.78606377 269.42615241 283.1309204 272.22729492 286.47924805 C275.67172692 290.59934129 279.07661994 294.75016098 282.47265625 298.91015625 C285.53599061 302.65528373 288.61100941 306.390678 291.6875 310.125 C292.28328857 310.8483252 292.87907715 311.57165039 293.49291992 312.31689453 C296.51214792 315.98191865 299.53264423 319.64589068 302.5546875 323.30859375 C322.62371657 347.63950413 322.62371657 347.63950413 331.625 359.1875 C335.30916178 363.90842097 339.07391233 368.54956221 342.9375 373.125 C343.38625488 373.65762451 343.83500977 374.19024902 344.29736328 374.73901367 C346.75033241 377.62150724 349.28299067 380.36494222 352 383 C352.40089844 382.52691406 352.80179688 382.05382812 353.21484375 381.56640625 C356.44245682 377.81183594 359.74159827 374.24361554 363.3125 370.8125 C368.84863751 365.36182602 373.38356163 359.22469217 378 353 C378.59039062 352.25363281 379.18078125 351.50726563 379.7890625 350.73828125 C381.19053487 349.0795716 381.19053487 349.0795716 381 347 C382.5 345.375 382.5 345.375 384 344 C380.09447016 338.51694241 375.81847221 333.52685206 371.28125 328.55859375 C368.44026701 325.37221728 365.80560721 322.05113903 363.1640625 318.69921875 C360.66563426 315.58294815 358.09045442 312.53977374 355.5 309.5 C344.51546749 296.59440575 344.51546749 296.59440575 340.40625 290.72265625 C339.9421875 290.15417969 339.478125 289.58570313 339 289 C338.34 289 337.68 289 337 289 C336.76152344 288.27941406 336.52304687 287.55882812 336.27734375 286.81640625 C334.80706163 283.57459155 332.99771895 281.52467021 330.5625 278.9375 C326.184533 274.25660942 326.184533 274.25660942 324.33984375 271.69140625 C323.89769531 271.13324219 323.45554687 270.57507813 323 270 C322.34 270 321.68 270 321 270 C320.66355469 268.95392578 320.66355469 268.95392578 320.3203125 267.88671875 C318.7033384 264.35138189 316.42475936 261.69526803 313.875 258.8125 C312.88280666 257.67040577 311.89193407 256.5271629 310.90234375 255.3828125 C310.41233887 254.81723633 309.92233398 254.25166016 309.41748047 253.66894531 C306.68226214 250.4484919 304.12466844 247.08610488 301.55859375 243.73046875 C301.04425781 243.15941406 300.52992188 242.58835937 300 242 C299.34 242 298.68 242 298 242 C297.731875 241.195625 297.46375 240.39125 297.1875 239.5625 C296.795625 238.716875 296.40375 237.87125 296 237 C295.01 236.67 294.02 236.34 293 236 C293 235.34 293 234.68 293 234 C292.34 233.67 291.68 233.34 291 233 C290.32870775 231.66898951 289.66287611 230.33522188 289 229 C287.87695108 227.54851225 286.70778017 226.1317824 285.5 224.75 C284.8915625 224.04359375 284.283125 223.3371875 283.65625 222.609375 C282.14583632 220.76770496 282.14583632 220.76770496 280 221 C279.885354 220.40396973 279.77070801 219.80793945 279.65258789 219.19384766 C278.58209643 215.59510608 275.89709388 213.12203053 273.4375 210.375 C272.34354726 209.1315306 271.25110636 207.88672957 270.16015625 206.640625 C269.62277832 206.02767578 269.08540039 205.41472656 268.53173828 204.78320312 C265.73124068 201.52294899 263.12814266 198.11330113 260.5234375 194.6953125 C260.02070313 194.13585937 259.51796875 193.57640625 259 193 C258.34 193 257.68 193 257 193 C256.71125 192.236875 256.4225 191.47375 256.125 190.6875 C255.03730987 187.84970692 255.03730987 187.84970692 253 185 C253.81797058 185.00666183 254.63594116 185.01332367 255.47869873 185.02018738 C263.1886945 185.08030776 270.89857655 185.125979 278.60874557 185.15543652 C282.5725988 185.17109008 286.53625828 185.19232243 290.5 185.22631836 C294.32551222 185.25892327 298.15083812 185.27685534 301.97647858 185.28463173 C303.43573184 185.29017325 304.89497495 185.30099456 306.35414886 185.31719017 C308.398758 185.33898033 310.44259805 185.34196639 312.48730469 185.34057617 C314.23270538 185.35056892 314.23270538 185.35056892 316.0133667 185.36076355 C319.34043576 184.95887784 320.54763927 184.20462618 323 182 C324.03125 181.319375 325.0625 180.63875 326.125 179.9375 C328.98233955 178.14513434 328.98233955 178.14513434 331 176 C332.3385519 175.07528535 333.69382131 174.1746214 335.05859375 173.2890625 C339.8432293 170.13370668 344.46260545 166.79232666 349.0625 163.375 C349.87380371 162.77324951 350.68510742 162.17149902 351.52099609 161.55151367 C353.19023067 160.3126769 354.8588521 159.07301354 356.52685547 157.83251953 C358.92811105 156.05326737 361.33947268 154.28865565 363.75390625 152.52734375 C365.21110788 151.45596087 366.6681472 150.38435717 368.125 149.3125 C368.80570557 148.81991699 369.48641113 148.32733398 370.18774414 147.81982422 C373.97170892 145.09728556 373.97170892 145.09728556 376 141 C377.05975288 140.86657448 377.05975288 140.86657448 378.14091492 140.73045349 C383.93835076 139.24929531 388.23596041 135.54648669 392 131 C393.45157654 126.28599611 393.29379331 121.89226569 393.07421875 116.99609375 C393.05865433 115.67706558 393.0430899 114.35803741 393.02705383 112.9990387 C392.98537822 109.51972043 392.87766308 106.0455892 392.75531006 102.56829834 C392.64204408 99.00913679 392.5923905 95.4491225 392.53710938 91.88867188 C392.41972345 84.92367214 392.23241929 77.96208604 392 71 C376.17058478 70.67202213 360.34209588 70.42563406 344.51012039 70.27462959 C337.15776826 70.20262963 329.8075345 70.10460061 322.45654297 69.94384766 C316.0443854 69.80369293 309.63376222 69.71384662 303.22011542 69.68276107 C299.82742903 69.66460305 296.43912908 69.62239848 293.04785919 69.51977921 C271.94143057 68.89807389 271.94143057 68.89807389 258.12094879 83.18058395 Z M119.375 244.875 C118.76398438 245.40867187 118.15296875 245.94234375 117.5234375 246.4921875 C114.60531803 249.38037754 114.8688516 251.93771996 114.83114624 255.9095459 C114.82845734 256.73748657 114.82576843 257.56542725 114.82299805 258.41845703 C114.81642685 259.29037689 114.80985565 260.16229675 114.80308533 261.06063843 C114.7833076 263.95969733 114.77167155 266.85870398 114.76171875 269.7578125 C114.75764322 270.75100368 114.7535677 271.74419487 114.74936867 272.76748276 C114.72847566 278.03785749 114.71419548 283.30820605 114.70483398 288.57861328 C114.69384312 293.98712809 114.65953836 299.39522305 114.61966228 304.80359077 C114.59330966 308.9887663 114.58512509 313.17384537 114.58155251 317.35909653 C114.57672399 319.34990099 114.56521872 321.34070226 114.54651451 323.33142471 C114.35958484 344.56996018 117.60498429 363.98711879 132.93164062 379.85742188 C133.39634766 380.32986328 133.86105469 380.80230469 134.33984375 381.2890625 C137.28316944 384.28857503 139.97550079 387.4424117 142.66015625 390.671875 C143.92230911 392.2346647 143.92230911 392.2346647 146 392 C146.23332031 392.57105469 146.46664062 393.14210938 146.70703125 393.73046875 C148.30958312 396.54340722 150.23762181 398.2002773 152.6875 400.3125 C156.51530593 403.65836799 160.13723433 407.08778928 163.625 410.78515625 C164.94400187 412.2207048 164.94400187 412.2207048 167 412 C167 412.66 167 413.32 167 414 C168.59675178 415.41170765 170.25513602 416.75399468 171.9375 418.0625 C175.67617194 421.04675283 179.17252796 424.06382652 182.5 427.5 C186.52763272 431.6429138 190.87189958 435.2095507 195.37890625 438.81640625 C198.42933777 441.35767484 201.14402466 444.11590226 203.90234375 446.96484375 C207.19366786 450.15810234 210.79668166 452.94984533 214.375 455.8125 C217.35141135 458.29284279 220.02799049 460.94705087 222.66015625 463.78515625 C223.94550667 465.22390157 223.94550667 465.22390157 226 465 C226 465.66 226 466.32 226 467 C227.61507363 468.67282181 227.61507363 468.67282181 229.6875 470.375 C230.41324219 470.99246094 231.13898438 471.60992188 231.88671875 472.24609375 C234.23449112 474.19461463 236.59564775 476.1215998 239 478 C247.38124938 471.95230596 247.38124938 471.95230596 255 465 C255 464.34 255 463.68 255 463 C255.66 463 256.32 463 257 463 C257 462.34 257 461.68 257 461 C257.53625 460.938125 258.0725 460.87625 258.625 460.8125 C262.17026157 459.59964736 264.2592392 457.55389074 267 455 C267 454.34 267 453.68 267 453 C267.88643188 452.83455688 267.88643188 452.83455688 268.79077148 452.66577148 C271.23625084 451.92880362 272.44844998 451.03238633 274.34765625 449.34765625 C274.95287109 448.81849609 275.55808594 448.28933594 276.18164062 447.74414062 C276.80232422 447.18919922 277.42300781 446.63425781 278.0625 446.0625 C279.30217023 444.96867333 280.54301326 443.87617406 281.78515625 442.78515625 C282.60318726 442.05631226 282.60318726 442.05631226 283.43774414 441.31274414 C285 440 285 440 288 438 C288 437.34 288 436.68 288 436 C288.66 436 289.32 436 290 436 C288.50363076 430.95212148 285.4556722 427.98454421 281.875 424.3125 C277.08613872 419.3030424 272.65231539 414.24141365 268.48828125 408.6953125 C267.99714844 408.13585937 267.50601563 407.57640625 267 407 C266.34 407 265.68 407 265 407 C264.78472656 406.30132812 264.56945312 405.60265625 264.34765625 404.8828125 C262.65135005 401.25419227 260.19453947 398.710556 257.4375 395.875 C252.77424864 390.96032277 248.40205156 385.91308319 244.15625 380.62890625 C241.23493434 377.06722973 238.1485335 373.66978124 235.05078125 370.26171875 C230.76415542 365.53418283 226.70653689 360.64361803 222.6875 355.6875 C219.71306491 352.03547166 216.67179849 348.48178229 213.5 345 C208.00409876 338.96509619 202.78846979 332.68567397 197.86328125 326.17578125 C197.24839844 325.45777344 196.63351562 324.73976563 196 324 C195.34 324 194.68 324 194 324 C193.7525 323.21625 193.505 322.4325 193.25 321.625 C191.79075497 318.56058543 190.94985044 318.38274239 188 317 C187.71640625 316.43023437 187.4328125 315.86046875 187.140625 315.2734375 C184.65429802 310.31781317 180.54473321 306.22984972 177 302 C176.38769531 301.24976563 175.77539062 300.49953125 175.14453125 299.7265625 C173.80956336 298.11141617 172.41125276 296.54893595 171 295 C170.34 295 169.68 295 169 295 C168.9175 294.4225 168.835 293.845 168.75 293.25 C167.7644337 290.2933011 166.2754257 289.15566646 164 287 C159.81144088 282.44545028 155.97606464 277.75499841 152.45703125 272.6640625 C150.80760577 270.78026825 149.23008834 270.08027148 147 269 C146.33333333 267.33333333 145.66666667 265.66666667 145 264 C143.1707477 261.50932314 141.25039451 259.12197526 139 257 C138.34 257 137.68 257 137 257 C136.76152344 256.28457031 136.52304688 255.56914062 136.27734375 254.83203125 C134.79950243 251.55547176 132.96698878 249.35257377 130.5625 246.6875 C129.78003906 245.80449219 128.99757812 244.92148437 128.19140625 244.01171875 C124.55476989 240.67327361 122.671116 241.94356067 119.375 244.875 Z " fill="#F14D1F" transform="translate(104,97)"/>
<path d="M0 0 C0.99 0.33 1.98 0.66 3 1 C2.67 1.99 2.34 2.98 2 4 C3.24595036 6.12079106 3.24595036 6.12079106 5.1875 8.3125 C5.92742187 9.199375 6.66734375 10.08625 7.4296875 11 C8.27789062 11.99 9.12609375 12.98 10 14 C10.94019852 15.10408633 11.88029921 16.20825597 12.8203125 17.3125 C14.85219547 19.69260023 16.89076662 22.06678812 18.93359375 24.4375 C26.65529536 33.40057828 34.2309163 42.47650869 41.73120117 51.62548828 C45.49030409 56.19977497 49.31060028 60.71283761 53.1875 65.1875 C57.65080022 70.34035503 61.88735894 75.63381499 66.06054688 81.02319336 C69.48260476 85.41437902 73.1238703 89.54775065 76.890625 93.6484375 C79.70249494 96.78315176 82.2991744 100.06569433 84.90625 103.37109375 C87.62604782 106.78606377 90.42615241 110.1309204 93.22729492 113.47924805 C96.67172692 117.59934129 100.07661994 121.75016098 103.47265625 125.91015625 C106.53599061 129.65528373 109.61100941 133.390678 112.6875 137.125 C113.28328857 137.8483252 113.87907715 138.57165039 114.49291992 139.31689453 C117.51214792 142.98191865 120.53264423 146.64589068 123.5546875 150.30859375 C133.81074531 162.74263939 144.05318461 175.18140211 153.95751953 187.8984375 C157.67512603 192.64559814 161.54063388 197.25667083 165.47314453 201.8269043 C167.472756 204.15655957 169.29353668 206.44030502 171 209 C171.928125 208.01 171.928125 208.01 172.875 207 C175 205 175 205 177 205 C177.2578125 204.41089844 177.515625 203.82179688 177.78125 203.21484375 C179.10152454 200.81549867 180.48998306 199.41188034 182.5 197.5625 C186.66968826 193.52239986 190.12369377 189.12115498 193.5859375 184.48071289 C195.58257729 181.80956517 197.54399447 179.26524782 200 177 C200.36621148 180.33192408 200.13775189 181.77586687 198.35546875 184.67578125 C197.28232422 185.98095703 197.28232422 185.98095703 196.1875 187.3125 C195.47980469 188.19550781 194.77210938 189.07851563 194.04296875 189.98828125 C192 192 192 192 189 192 C188.62875 192.804375 188.62875 192.804375 188.25 193.625 C184.44155049 200.86105406 179.25843986 206.71323778 173 212 C172.01 212 171.02 212 170 212 C170 211.34 170 210.68 170 210 C169.34 210 168.68 210 168 210 C166.64626036 208.49096123 165.36556599 206.91587302 164.125 205.3125 C163.44695312 204.44238281 162.76890625 203.57226562 162.0703125 202.67578125 C161.38710938 201.79277344 160.70390625 200.90976562 160 200 C159.25492188 199.10667969 158.50984375 198.21335937 157.7421875 197.29296875 C156 195 156 195 156 193 C155.01 192.67 154.02 192.34 153 192 C151.34670115 190.05304238 149.82120667 188.11607355 148.3125 186.0625 C147.41217909 184.86534304 146.51113021 183.66873321 145.609375 182.47265625 C145.16529297 181.87984863 144.72121094 181.28704102 144.26367188 180.67626953 C140.01207257 175.03649349 135.52253899 169.59563295 130.92993164 164.23242188 C130.4580542 163.68134766 129.98617676 163.13027344 129.5 162.5625 C128.79701782 161.74168945 128.79701782 161.74168945 128.07983398 160.90429688 C124.41683745 156.58662354 121.07496015 152.0950966 117.8515625 147.4375 C115.7742112 144.70275905 113.44015912 142.41408108 111 140 C109.45516868 138.18684216 107.9340938 136.35317353 106.4375 134.5 C105.69371094 133.5821875 104.94992187 132.664375 104.18359375 131.71875 C103.46300781 130.8215625 102.74242187 129.924375 102 129 C100.87271484 127.65421875 100.87271484 127.65421875 99.72265625 126.28125 C98 124 98 124 98 122 C97.34 122 96.68 122 96 122 C94.37109375 120.19921875 94.37109375 120.19921875 92.4375 117.6875 C91.72335937 116.77226562 91.00921875 115.85703125 90.2734375 114.9140625 C89.52320313 113.95242188 88.77296875 112.99078125 88 112 C86.5265163 110.18287699 85.04733872 108.37035626 83.5625 106.5625 C81.28197904 103.78519317 79.00484304 101.00599294 76.74609375 98.2109375 C73.14351582 93.76253693 69.49719144 89.40419246 65.625 85.1875 C61.51252989 80.68029018 57.76422329 75.95333669 54.0402832 71.12646484 C50.68741978 66.80230002 47.14286878 62.73090255 43.36328125 58.76953125 C42 57 42 57 42 54 C41.43796875 53.7834375 40.8759375 53.566875 40.296875 53.34375 C37.22963235 51.54930872 35.47339428 49.26107786 33.25 46.5 C32.45078125 45.5203125 31.6515625 44.540625 30.828125 43.53125 C29 41 29 41 29 39 C28.34 39 27.68 39 27 39 C25.39365985 37.26608049 23.8624713 35.461909 22.375 33.625 C21.55773437 32.62726563 20.74046875 31.62953125 19.8984375 30.6015625 C18 28 18 28 18 26 C17.34 26 16.68 26 16 26 C13 22.53846154 13 22.53846154 13 20 C12.34 20 11.68 20 11 20 C7 15.52941176 7 15.52941176 7 13 C6.34 13 5.68 13 5 13 C2.62847284 10.58044191 0.67141046 7.94538455 -1 5 C-0.875 2 -0.875 2 0 0 Z " fill="#DA2B0C" transform="translate(284,270)"/>
<path d="M0 0 C0.66 1.32 1.32 2.64 2 4 C1.278125 3.731875 0.55625 3.46375 -0.1875 3.1875 C-1.5796875 3.0946875 -1.5796875 3.0946875 -3 3 C-5.70848923 5.37505218 -5.70848923 5.37505218 -8 8 C-8.66 8 -9.32 8 -10 8 C-10.09316871 19.97967908 -10.16400105 31.95927027 -10.20724869 43.9392395 C-10.22801784 49.50356961 -10.25613794 55.06764968 -10.30175781 60.63183594 C-10.34559938 66.01353369 -10.36921709 71.39499274 -10.37950897 76.77685547 C-10.3868322 78.81790925 -10.40113011 80.85895174 -10.42292023 82.89990234 C-10.64298683 104.3902081 -7.49420344 123.86814032 8.01513672 139.94311523 C8.71533936 140.65576538 8.71533936 140.65576538 9.4296875 141.3828125 C11.47406513 143.46447362 13.34994966 145.5532168 15.1875 147.8125 C17.73009109 150.82195103 20.57199033 153.28643259 23.57421875 155.828125 C27.41583948 159.26764372 31.00156778 162.96117957 34.60766602 166.64501953 C37.5122135 169.70157839 37.5122135 169.70157839 41 172 C41 172.66 41 173.32 41 174 C41.89162842 174.40726318 41.89162842 174.40726318 42.80126953 174.82275391 C44.96097866 175.97910716 46.4241373 177.1436897 48.1796875 178.8359375 C48.77144775 179.39933838 49.36320801 179.96273926 49.97290039 180.54321289 C50.60059326 181.14770264 51.22828613 181.75219238 51.875 182.375 C56.82860657 187.077271 61.84114764 191.65920896 67.0625 196.0625 C72.57188639 200.71690084 77.8854906 205.54567419 83.15014648 210.47436523 C90.38414356 217.37015478 90.38414356 217.37015478 98.2109375 223.5546875 C98.80132812 224.03164063 99.39171875 224.50859375 100 225 C100 225.66 100 226.32 100 227 C100.58652344 227.25652344 101.17304688 227.51304687 101.77734375 227.77734375 C104.19069227 229.10489751 105.68919379 230.55508686 107.5625 232.5625 C109.8343494 234.99626295 110.76779382 235.92259794 114 237 C115.67580052 236.02792965 115.67580052 236.02792965 117.1875 234.5625 C118.115625 233.716875 119.04375 232.87125 120 232 C120.33 232.99 120.66 233.98 121 235 C115.6242116 240.00925738 115.6242116 240.00925738 113.15625 239.97265625 C109.990798 238.54476214 107.72031385 236.25440129 105.25 233.875 C104.17252461 232.86128825 103.09439995 231.84826617 102.015625 230.8359375 C101.49548828 230.34448242 100.97535156 229.85302734 100.43945312 229.34667969 C98.6641789 227.68582273 96.84186909 226.08648388 95 224.5 C91.6094922 221.5615599 88.3003097 218.53885858 85 215.5 C81.06371049 211.87593051 77.09218822 208.30281893 73.046875 204.80078125 C70.55925274 202.61224335 68.12646548 200.36760809 65.6875 198.125 C62.03113359 194.78174784 58.30700708 191.5934195 54.4375 188.5 C49.75782949 184.72693232 45.54890769 180.65275073 41.3515625 176.35546875 C38.64498743 173.6443977 35.81316274 171.13735424 32.88671875 168.66796875 C31.44317466 167.39179209 30.05543808 166.05223618 28.6953125 164.6875 C26.71989366 162.71780702 24.73505498 160.8252064 22.66796875 158.95703125 C21.81235352 158.18262695 21.81235352 158.18262695 20.93945312 157.39257812 C19.75488121 156.32421839 18.56729166 155.25919655 17.37695312 154.19726562 C15.88084669 152.83794606 14.43564221 151.42303042 13 150 C13 149.34 13 148.68 13 148 C12.34 148 11.68 148 11 148 C-2.99422459 134.80004221 -12.72077797 116.70326475 -13.51276779 97.39972115 C-13.63376465 92.49792905 -13.66487529 87.59844276 -13.671875 82.6953125 C-13.68475565 80.5597194 -13.69821414 78.42412972 -13.71221924 76.2885437 C-13.73602269 71.83908902 -13.74359448 67.38994344 -13.74121094 62.94042969 C-13.74080249 57.25059473 -13.79567658 51.56273451 -13.86429977 45.87336922 C-13.9088204 41.47399832 -13.91688707 37.07510639 -13.91477203 32.67553329 C-13.91947623 30.57759592 -13.93707987 28.47964458 -13.9681015 26.3819313 C-14.214791 7.99987993 -14.214791 7.99987993 -9.25488281 2.65576172 C-6.12402169 0.11640775 -3.99553234 -0.29685682 0 0 Z " fill="#D92E0F" transform="translate(230,337)"/>
<path d="M0 0 C1.67456017 -0.00416176 1.67456017 -0.00416176 3.38294983 -0.00840759 C7.06408296 -0.00793362 10.74197267 0.04939555 14.42260742 0.10766602 C16.98938113 0.12006027 19.55617335 0.12904783 22.12297058 0.13478088 C27.50078129 0.15456347 32.87747189 0.19850478 38.25488281 0.265625 C45.8096993 0.3598981 53.36416352 0.40355205 60.91946375 0.43625724 C71.62751859 0.48544082 82.33551435 0.55952612 93.04296875 0.68359375 C94.08070435 0.69256683 95.11843994 0.70153992 96.18762207 0.71078491 C102.41345692 0.79299306 108.53200633 1.19234503 114.71557617 1.92407227 C114.83146039 10.06907736 114.92028519 18.21373771 114.97463703 26.35936356 C115.00072435 30.14180888 115.03610442 33.92368997 115.09277344 37.70581055 C115.14712739 41.35629564 115.17700323 45.00623833 115.18996239 48.65709686 C115.1991965 50.04942108 115.21722937 51.44171581 115.24422646 52.8338089 C115.28054971 54.78450023 115.28261882 56.73573818 115.28320312 58.68676758 C115.29430618 59.79707336 115.30540924 60.90737915 115.31684875 62.05133057 C114.71557617 64.92407227 114.71557617 64.92407227 112.32463074 67.26702881 C110.00520517 68.74012523 108.40355069 69.52585382 105.71557617 69.92407227 C107.0854112 66.76291451 107.70463997 65.93136307 110.71557617 63.92407227 C111.19369737 61.30113937 111.19369737 61.30113937 111.14794922 58.18920898 C111.17764046 56.3875679 111.17764046 56.3875679 111.20793152 54.54953003 C111.21432144 53.24742584 111.22071136 51.94532166 111.22729492 50.60375977 C111.24413529 49.26138657 111.26228466 47.9190292 111.2816925 46.57669067 C111.32926924 43.04218493 111.35902842 39.50774333 111.38513184 35.97302246 C111.41489906 32.36673302 111.4614424 28.76066488 111.5065918 25.15454102 C111.59271173 18.07784459 111.66001805 11.0010799 111.71557617 3.92407227 C110.72557617 4.25407227 109.73557617 4.58407227 108.71557617 4.92407227 C107.09828127 4.99138741 105.47815887 4.99858394 103.85971069 4.9703064 C102.85889465 4.9557843 101.85807861 4.94126221 100.82693481 4.92630005 C99.72977142 4.90542328 98.63260803 4.88454651 97.50219727 4.86303711 C95.10501679 4.8267124 92.70783017 4.79079198 90.31063843 4.75521851 C88.3996039 4.72470964 88.3996039 4.72470964 86.44996262 4.69358444 C82.46514114 4.63465674 78.48033481 4.58938566 74.49526978 4.55166626 C73.82210547 4.54527425 73.14894116 4.53888224 72.45537794 4.53229654 C69.67816465 4.50628086 66.90094602 4.48088147 64.1237247 4.45573878 C56.24819983 4.38363173 48.37382961 4.29349049 40.49926758 4.14916992 C34.24098146 4.03459484 27.98360015 3.95940711 21.72431624 3.92976916 C18.41442078 3.91262855 15.10805166 3.87005218 11.79896164 3.7916069 C-2.23072583 2.64377393 -2.23072583 2.64377393 -14.82939148 7.29847717 C-17.13756762 10.08921717 -18.69558744 12.68577618 -20.28442383 15.92407227 C-21.41152542 17.33657906 -22.57269899 18.72371417 -23.78833008 20.06079102 C-24.30073242 20.65698242 -24.81313477 21.25317383 -25.34106445 21.86743164 C-25.83799805 22.44299805 -26.33493164 23.01856445 -26.84692383 23.61157227 C-27.37866211 24.22967773 -27.91040039 24.8477832 -28.45825195 25.48461914 C-29.73245986 26.96545536 -31.00825498 28.44492563 -32.28442383 29.92407227 C-32.61442383 28.60407227 -32.94442383 27.28407227 -33.28442383 25.92407227 C-32.64504883 25.67657227 -32.00567383 25.42907227 -31.34692383 25.17407227 C-30.66629883 24.76157227 -29.98567383 24.34907227 -29.28442383 23.92407227 C-29.17227539 23.34657227 -29.06012695 22.76907227 -28.94458008 22.17407227 C-27.98446676 18.90173337 -25.98935847 17.13774938 -23.65942383 14.67407227 C-22.8215332 13.78204102 -21.98364258 12.89000977 -21.12036133 11.97094727 C-20.66136035 11.49769736 -20.20235937 11.02444746 -19.72944927 10.53685665 C-18.21786073 8.91428657 -18.21786073 8.91428657 -16.87294483 6.90901279 C-11.99167394 0.28503453 -7.94865159 -0.20706204 0 0 Z " fill="#A62309" transform="translate(384.284423828125,164.075927734375)"/>
<path d="M0 0 C2.62592067 2.34950796 4.03666602 4.74477455 5.625 7.875 C14.92154526 25.23464225 28.55091814 41.23667265 42.84375 54.7421875 C44 56 44 56 44 58 C44.5775 58.226875 45.155 58.45375 45.75 58.6875 C48.59530878 60.34726345 49.93653334 62.42066667 52 65 C53.93621262 66.77521463 55.92827609 68.47386978 57.92578125 70.1796875 C59.87003974 71.88594825 61.69023686 73.65296485 63.5 75.5 C68.16425055 80.23862356 73.17459424 84.54995089 78.375 88.6875 C80.83047404 90.8506557 81.77202098 92.07174233 83 95 C83.97581759 96.35113205 84.97029741 97.68946944 86 99 C82.07647966 97.38388329 79.28596437 94.68672598 76.25 91.8125 C75.16863438 90.80397332 74.08660408 89.79615886 73.00390625 88.7890625 C72.48328613 88.3034082 71.96266602 87.81775391 71.42626953 87.31738281 C69.7127606 85.73468952 67.95847053 84.20547474 66.1875 82.6875 C53.43284157 71.60341014 40.68114222 59.91330123 29.734375 47.015625 C26.82105208 43.62987134 23.7594107 40.37659317 20.72265625 37.1015625 C19 35 19 35 19 33 C17.515 32.505 17.515 32.505 16 32 C15.33333333 30.66666667 14.66666667 29.33333333 14 28 C13.360625 27.566875 12.72125 27.13375 12.0625 26.6875 C9.66796327 24.72833359 8.94980896 22.82380672 7.859375 19.9765625 C6.56689186 17.00385128 4.78113721 14.39114702 2.98828125 11.69921875 C2 10 2 10 2 8 C1.34 8 0.68 8 0 8 C-0.38063221 5.6739143 -0.71269945 3.33944736 -1 1 C-0.67 0.67 -0.34 0.34 0 0 Z " fill="#A4230C" transform="translate(129,426)"/>
<path d="M0 0 C0.11670382 20.67914415 0.2049246 41.35823414 0.25906086 62.03764057 C0.2848633 71.63905648 0.32005265 81.240268 0.37719727 90.84155273 C0.42696996 99.20820139 0.45927617 107.57470206 0.47044247 115.94149464 C0.47697169 120.37340209 0.49235904 124.80488612 0.52865028 129.2366581 C0.56251317 133.40554606 0.57307284 137.57383501 0.56553841 141.74284744 C0.56691733 143.2751624 0.57690806 144.80749678 0.59602737 146.33969307 C0.62081664 148.42819834 0.61496069 150.51442637 0.60127258 152.60298157 C0.60818603 154.35761451 0.60818603 154.35761451 0.61523914 156.14769459 C0 159 0 159 -2.53757954 160.89981365 C-3.35017829 161.26287515 -4.16277704 161.62593664 -5 162 C-4.6875 160.0625 -4.6875 160.0625 -4 158 C-3.01 157.67 -2.02 157.34 -1 157 C-1 105.85 -1 54.7 -1 2 C-75.91 2 -150.82 2 -228 2 C-228 1.67 -228 1.34 -228 1 C-199.53181139 0.87250266 -171.06362237 0.74509643 -142.59543277 0.61781773 C-139.23582237 0.60279713 -135.87621196 0.58777576 -132.51660156 0.57275391 C-131.8477531 0.56976329 -131.17890463 0.56677268 -130.48978803 0.56369144 C-119.65459172 0.51524229 -108.81939571 0.46673006 -97.98419979 0.41819459 C-86.8693788 0.36840797 -75.75455751 0.3186903 -64.63973594 0.26903296 C-58.39542607 0.24113325 -52.15111634 0.2132019 -45.90680695 0.18519592 C-40.03332299 0.1588541 -34.15983868 0.13259545 -28.28635406 0.10640144 C-26.1272073 0.09675747 -23.96806067 0.08708273 -21.80891418 0.07737541 C-18.86758459 0.06415601 -15.92625453 0.05104593 -12.98492432 0.03796387 C-12.12500326 0.03407292 -11.26508221 0.03018197 -10.37910295 0.02617311 C-6.91935071 0.01088385 -3.45979384 0 0 0 Z " fill="#D11100" transform="translate(581,97)"/>
<path d="M0 0 C1.92330087 -0.0054942 3.84658778 -0.01533375 5.76987076 -0.02528381 C6.89311752 -0.02588806 8.01636429 -0.02649231 9.17364883 -0.02711487 C10.63216766 -0.03019653 10.63216766 -0.03019653 12.12015152 -0.03334045 C14.29132462 0.08811951 14.29132462 0.08811951 15.29132462 1.08811951 C15.37494898 2.59406998 15.38825798 4.10398321 15.37361526 5.61218262 C15.36657578 6.58959915 15.35953629 7.56701569 15.35228348 8.5740509 C15.33933746 9.6551413 15.32639145 10.73623169 15.31305313 11.8500824 C15.30344559 12.98164261 15.29383804 14.11320282 15.28393936 15.27905273 C15.25081435 19.03968773 15.21053373 22.80021138 15.17023087 26.56077576 C15.14594293 29.16009116 15.12209873 31.75941073 15.0986824 34.35873413 C15.04215469 40.51403744 14.98113335 46.66928135 14.91796106 52.82451957 C14.84630711 59.83041875 14.78035373 66.83636791 14.7148906 73.84232724 C14.58006659 88.25765587 14.4380466 102.67290732 14.29132462 117.08811951 C15.28132462 116.42811951 16.27132462 115.76811951 17.29132462 115.08811951 C16.79632462 117.06811951 16.79632462 117.06811951 16.29132462 119.08811951 C14.97132462 119.41811951 13.65132462 119.74811951 12.29132462 120.08811951 C12.29132462 81.14811951 12.29132462 42.20811951 12.29132462 2.08811951 C-24.66867538 2.08811951 -61.62867538 2.08811951 -99.70867538 2.08811951 C-99.70867538 1.75811951 -99.70867538 1.42811951 -99.70867538 1.08811951 C-89.27458425 0.95550941 -78.84046884 0.82500829 -68.40632057 0.69696808 C-63.55771116 0.63740816 -58.70911174 0.57720709 -53.86053085 0.5153656 C-16.76195326 0.04320034 -16.76195326 0.04320034 0 0 Z " fill="#E01E03" transform="translate(206.70867538452148,96.91188049316406)"/>
<path d="M0 0 C0.33 0 0.66 0 1 0 C1.00135653 0.58080751 1.00271306 1.16161502 1.00411069 1.76002276 C1.08485211 36.22324174 1.17584393 70.68641817 1.28005161 105.14957426 C1.2925697 109.29242428 1.3050026 113.43527456 1.31738281 117.578125 C1.31984881 118.40285295 1.3223148 119.22758089 1.32485552 120.07730059 C1.36452282 133.41150908 1.39729677 146.74572597 1.42749982 160.07995887 C1.45867115 173.77354192 1.49730462 187.46708944 1.54279006 201.16063249 C1.57059863 209.60262135 1.59266454 218.04458437 1.60726251 226.48660658 C1.61784709 232.28443805 1.63571395 238.08221933 1.65916704 243.88001288 C1.67246484 247.21941869 1.68160255 250.55869343 1.68421364 253.89813423 C1.58086143 271.38571664 1.58086143 271.38571664 3.76902199 288.69200706 C3.84524473 289.45364473 3.92146748 290.2152824 4 291 C3.34 291.66 2.68 292.32 2 293 C-0.71707652 285.55318005 -1.41574247 278.94281365 -1.32279968 271.05368042 C-1.3212794 269.88949085 -1.31975913 268.72530129 -1.31819278 267.52583325 C-1.31098152 264.32160116 -1.29026703 261.11779643 -1.26365387 257.91367769 C-1.23822966 254.44828485 -1.23049608 250.98284533 -1.22055054 247.51737976 C-1.20095348 241.52226052 -1.17029333 235.52728109 -1.13199425 229.53225327 C-1.07663735 220.86459968 -1.03815893 212.19693486 -1.003723 203.52917589 C-0.94739035 189.46436802 -0.87751762 175.39966159 -0.79907227 161.33496094 C-0.72292523 147.67711127 -0.65319091 134.01925353 -0.59204102 120.36132812 C-0.58826585 119.51863561 -0.58449068 118.6759431 -0.58060112 117.80771445 C-0.56170055 113.57992909 -0.54292564 109.35214318 -0.52421319 105.12435699 C-0.36895463 70.08279762 -0.19169749 35.04137825 0 0 Z " fill="#F01E06" transform="translate(125,134)"/>
<path d="M0 0 C0.89248947 0.09161407 1.78497894 0.18322815 2.70451355 0.27761841 C3.71860039 0.38358841 3.71860039 0.38358841 4.75317383 0.49169922 C4.86905805 8.63670431 4.95788285 16.78136466 5.01223469 24.92699051 C5.038322 28.70943583 5.07370208 32.49131693 5.13037109 36.2734375 C5.18472505 39.9239226 5.21460089 43.57386528 5.22756004 47.22472382 C5.23679416 48.61704804 5.25482702 50.00934277 5.28182411 51.40143585 C5.31814736 53.35212718 5.32021647 55.30336513 5.32080078 57.25439453 C5.33745537 58.91985321 5.33745537 58.91985321 5.35444641 60.61895752 C4.75317383 63.49169922 4.75317383 63.49169922 2.36222839 65.83465576 C0.04280283 67.30775219 -1.55885166 68.09348077 -4.24682617 68.49169922 C-2.87699114 65.33054146 -2.25776238 64.49899002 0.75317383 62.49169922 C1.23129503 59.86876633 1.23129503 59.86876633 1.18554688 56.75683594 C1.20534103 55.55574188 1.22513519 54.35464783 1.24552917 53.11715698 C1.25511406 51.1640007 1.25511406 51.1640007 1.26489258 49.17138672 C1.28173294 47.82901352 1.29988232 46.48665616 1.31929016 45.14431763 C1.3668669 41.60981188 1.39662608 38.07537029 1.42272949 34.54064941 C1.45249672 30.93435997 1.49904006 27.32829183 1.54418945 23.72216797 C1.63030939 16.64547155 1.69761571 9.56870685 1.75317383 2.49169922 C0.76317383 2.82169922 -0.22682617 3.15169922 -1.24682617 3.49169922 C-4.05407008 3.50802147 -6.82990841 3.46608557 -9.63354492 3.37060547 C-10.45055374 3.34699448 -11.26756256 3.32338348 -12.10932922 3.29905701 C-14.71784211 3.22250704 -17.32605161 3.1384455 -19.93432617 3.05419922 C-21.70319155 3.00096985 -23.47207172 2.9482295 -25.2409668 2.89599609 C-29.57644523 2.76690363 -33.9116666 2.63107411 -38.24682617 2.49169922 C-31.9121891 -3.84293785 -8.32059351 -0.86073632 0 0 Z " fill="#B02A0E" transform="translate(494.246826171875,165.50830078125)"/>
<path d="M0 0 C9.77460791 4.29059824 16.82881548 13.84070639 22 23 C22.33 23.99 22.66 24.98 23 26 C23.76054687 26.45632813 24.52109375 26.91265625 25.3046875 27.3828125 C28.34880941 29.20928565 29.94675839 31.08386912 32.125 33.875 C32.89972656 34.85082031 33.67445313 35.82664062 34.47265625 36.83203125 C34.8814502 37.34846191 35.29024414 37.86489258 35.71142578 38.39697266 C37.93808814 41.16701151 40.25452276 43.86020503 42.5625 46.5625 C54.0480821 60.07212315 54.0480821 60.07212315 58 66 C57.625 68.1875 57.625 68.1875 57 70 C55.02 70.495 55.02 70.495 53 71 C53 71.66 53 72.32 53 73 C52.01 72.505 52.01 72.505 51 72 C51 71.01 51 70.02 51 69 C51.99 69 52.98 69 54 69 C53.45797505 64.94415815 51.40865887 63.01403397 48.625 60.125 C44.7169244 55.978765 41.10167532 51.70094597 37.625 47.1875 C33.33915201 41.63751399 28.87442218 36.28411516 24.28320312 30.98486328 C20.65979101 26.79514462 17.17070542 22.51698702 13.734375 18.171875 C10.7041341 14.37724901 7.52454878 10.71336905 4.296875 7.0859375 C3.46929687 6.14621094 3.46929687 6.14621094 2.625 5.1875 C2.12226563 4.62417969 1.61953125 4.06085938 1.1015625 3.48046875 C0 2 0 2 0 0 Z " fill="#801A08" transform="translate(433,374)"/>
<path d="M0 0 C4.20372588 1.56532181 6.56046588 4.69088798 9.3125 8.0625 C9.80177979 8.6517627 10.29105957 9.24102539 10.79516602 9.84814453 C13.94706147 13.66165173 17.02394353 17.52836864 20.03125 21.45703125 C22.79312617 25.02445463 25.61622792 28.54196633 28.4375 32.0625 C28.98269287 32.74296387 29.52788574 33.42342773 30.08959961 34.12451172 C31.39257751 35.75006648 32.69621833 37.37508984 34 39 C34.61875 38.34 35.2375 37.68 35.875 37 C38 35 38 35 40 35 C40.2578125 34.41089844 40.515625 33.82179688 40.78125 33.21484375 C42.10152454 30.81549867 43.48998306 29.41188034 45.5 27.5625 C49.66968826 23.52239986 53.12369377 19.12115498 56.5859375 14.48071289 C58.58257729 11.80956517 60.54399447 9.26524782 63 7 C63.36621148 10.33192408 63.13775189 11.77586687 61.35546875 14.67578125 C60.64003906 15.54589844 59.92460937 16.41601562 59.1875 17.3125 C58.47980469 18.19550781 57.77210938 19.07851563 57.04296875 19.98828125 C55 22 55 22 52 22 C51.7525 22.53625 51.505 23.0725 51.25 23.625 C47.44155049 30.86105406 42.25843986 36.71323778 36 42 C35.01 42 34.02 42 33 42 C33 41.34 33 40.68 33 40 C32.34 40 31.68 40 31 40 C29.64626036 38.49096123 28.36556599 36.91587302 27.125 35.3125 C26.10792969 34.00732422 26.10792969 34.00732422 25.0703125 32.67578125 C24.38710938 31.79277344 23.70390625 30.90976562 23 30 C22.25492187 29.10667969 21.50984375 28.21335937 20.7421875 27.29296875 C19 25 19 25 19 23 C18.01 22.67 17.02 22.34 16 22 C14.29966056 20.03334233 12.73397163 18.0814751 11.1875 16 C10.74680176 15.41710205 10.30610352 14.8342041 9.85205078 14.23364258 C6.38422091 9.61008121 3.10089547 4.878238 0 0 Z " fill="#D72B0C" transform="translate(421,440)"/>
<path d="M0 0 C0.66 0 1.32 0 2 0 C2 0.66 2 1.32 2 2 C2.99 2.495 2.99 2.495 4 3 C-2.67402532 6.69631705 -9.08813237 6.47350571 -16.58984375 6.51171875 C-17.88950577 6.52966995 -19.18916779 6.54762115 -20.5282135 6.56611633 C-23.96236184 6.61338717 -27.39644554 6.64334372 -30.83081055 6.66955566 C-34.34371704 6.69947786 -37.8564013 6.74596771 -41.36914062 6.79101562 C-48.24596662 6.8767872 -55.12286683 6.94424787 -62 7 C-61.52304687 7.78117187 -61.04609375 8.56234375 -60.5546875 9.3671875 C-59 12 -59 12 -58.125 14.125 C-57.07125742 16.21929611 -57.07125742 16.21929611 -54.5625 17.4375 C-51.60524785 19.24070253 -50.56270468 20.95683826 -49 24 C-49.66 24.66 -50.32 25.32 -51 26 C-54.01002945 22.6755897 -57.00695856 19.33970693 -60 16 C-60.61488281 15.32453125 -61.22976563 14.6490625 -61.86328125 13.953125 C-62.38277344 13.37046875 -62.90226562 12.7878125 -63.4375 12.1875 C-64.11619141 11.43533203 -64.11619141 11.43533203 -64.80859375 10.66796875 C-66.29983723 8.58022787 -67.07832977 6.38574253 -68 4 C-67.1775882 3.99191315 -66.35517639 3.98382629 -65.50784302 3.97549438 C-57.76763178 3.89764119 -50.02761158 3.81037911 -42.28763008 3.71247292 C-38.30816273 3.66246894 -34.32872247 3.61613953 -30.34912109 3.578125 C-26.51053118 3.54132363 -22.6721656 3.49497825 -18.83376694 3.44193649 C-17.36734822 3.42336503 -15.90088137 3.40826728 -14.43439102 3.39665604 C-12.38457379 3.37984012 -10.33527344 3.35081802 -8.28564453 3.31884766 C-6.533582 3.29886215 -6.533582 3.29886215 -4.74612427 3.2784729 C-1.85629428 3.27773433 -1.85629428 3.27773433 0 1 C0 0.67 0 0.34 0 0 Z " fill="#E13C17" transform="translate(425,278)"/>
<path d="M0 0 C2.62592067 2.34950796 4.03666602 4.74477455 5.625 7.875 C11.98479605 19.75078623 20.17249546 29.91142338 29 40 C29.74378906 40.8559375 30.48757812 41.711875 31.25390625 42.59375 C32.82948799 44.40169025 34.41047446 46.2043244 36 48 C35.34 48.99 34.68 49.98 34 51 C22.80865187 40.0702678 22.80865187 40.0702678 19 35 C19 34.34 19 33.68 19 33 C17.515 32.505 17.515 32.505 16 32 C15.33333333 30.66666667 14.66666667 29.33333333 14 28 C13.360625 27.566875 12.72125 27.13375 12.0625 26.6875 C9.66796327 24.72833359 8.94980896 22.82380672 7.859375 19.9765625 C6.56689186 17.00385128 4.78113721 14.39114702 2.98828125 11.69921875 C2 10 2 10 2 8 C1.34 8 0.68 8 0 8 C-0.38063221 5.6739143 -0.71269945 3.33944736 -1 1 C-0.67 0.67 -0.34 0.34 0 0 Z " fill="#EB3011" transform="translate(129,426)"/>
<path d="M0 0 C5.37712347 2.23051048 8.24009505 5.10051271 11.8125 9.5 C12.59451782 10.43767212 12.59451782 10.43767212 13.39233398 11.39428711 C14.93912713 13.25418668 16.47143699 15.12510595 18 17 C18.78890625 17.96035156 19.5778125 18.92070312 20.390625 19.91015625 C21.8320487 21.67045606 23.26702346 23.43605748 24.6953125 25.20703125 C26.40895861 27.28373797 28.14451459 29.31084412 29.9296875 31.32421875 C30.42911865 31.89390381 30.9285498 32.46358887 31.44311523 33.05053711 C32.40962299 34.14968111 33.3851722 35.24096827 34.37133789 36.32250977 C37.6938158 40.12316367 38.94035468 43.18012758 40 48 C36.6010268 44.7009966 33.47021256 41.28063231 30.4296875 37.6484375 C28.3578937 35.25964793 26.11221656 33.10580418 23.8125 30.9375 C22 29 22 29 22 27 C21.01 26.67 20.02 26.34 19 26 C18.28577848 24.69152385 17.62438569 23.35364867 17 22 C16.03968428 20.73958562 15.03847263 19.50933971 14 18.3125 C13.484375 17.71050781 12.96875 17.10851562 12.4375 16.48828125 C11.04954056 14.88616884 11.04954056 14.88616884 9 14 C8.5875 13.29875 8.175 12.5975 7.75 11.875 C5.85314428 8.75873704 3.65669522 6.23885534 1.20703125 3.55078125 C0 2 0 2 0 0 Z " fill="#841A07" transform="translate(375,304)"/>
<path d="M0 0 C4.73683173 1.25366791 7.14912537 2.71413061 10.3125 6.4375 C11.47458984 7.79101562 11.47458984 7.79101562 12.66015625 9.171875 C15.61382559 12.74191941 18.55262973 16.32256373 21.4609375 19.9296875 C23.39154266 22.26423467 25.34740093 24.55028127 27.3515625 26.8203125 C27.93389648 27.48135986 28.51623047 28.14240723 29.11621094 28.82348633 C30.26248245 30.11980421 31.41394277 31.411558 32.57128906 32.69799805 C35.69876284 36.23990482 38.24341239 39.54347217 40 44 C39.505 44.99 39.505 44.99 39 46 C33.14984691 39.68574291 27.52118017 33.28352617 22.109375 26.5859375 C18.57194717 22.24931301 14.95903295 17.95903295 11 14 C6.99512119 9.54882971 3.41254162 4.91807469 0 0 Z " fill="#AE220A" transform="translate(325,451)"/>
<path d="M0 0 C0.33 0 0.66 0 1 0 C1.11670515 20.41838036 1.20492522 40.83669321 1.25906086 61.25533772 C1.28486303 70.73568674 1.32005184 80.21582875 1.37719727 89.69604492 C1.42697081 97.95721817 1.45927637 106.21824154 1.47044247 114.47956055 C1.47697156 118.85557903 1.49235797 123.23116867 1.52865028 127.60704994 C1.56251455 131.72341027 1.57307258 135.83916394 1.56553841 139.95565033 C1.56691727 141.46861502 1.57690724 142.98159939 1.59602737 144.49444389 C1.62081895 146.55668412 1.61496005 148.61661845 1.60127258 150.6789093 C1.60588155 151.83391591 1.61049051 152.98892252 1.61523914 154.17892933 C1 157 1 157 -1.53757954 158.89506817 C-2.35017829 159.25969567 -3.16277704 159.62432318 -4 160 C-3.6875 158.0625 -3.6875 158.0625 -3 156 C-2.01 155.67 -1.02 155.34 0 155 C0 103.85 0 52.7 0 0 Z " fill="#C41701" transform="translate(580,99)"/>
<path d="M0 0 C0.556875 0.28875 1.11375 0.5775 1.6875 0.875 C3.9655695 2.03555874 3.9655695 2.03555874 6.3203125 2.828125 C9.35427018 4.15492865 11.60641388 5.80544532 14.1875 7.875 C15.04730469 8.55304687 15.90710938 9.23109375 16.79296875 9.9296875 C19 12 19 12 19.92578125 14.0703125 C21.54137076 16.97249874 24.03737688 17.55289887 27 19 C29.80856227 21.02476087 32.4618418 23.22643637 35.125 25.4375 C36.17880859 26.29698242 36.17880859 26.29698242 37.25390625 27.17382812 C42.35603544 31.36451836 46.75529654 35.15953377 50 41 C48.66666667 40.33333333 47.33333333 39.66666667 46 39 C44.9790625 38.566875 44.9790625 38.566875 43.9375 38.125 C41.61448312 36.77615149 40.58655129 35.13839522 39 33 C38.01 32.67 37.02 32.34 36 32 C34.30731907 30.35976013 32.64534729 28.68771675 31 27 C28.80922326 25.01734361 26.56293155 23.1019586 24.3125 21.1875 C23.69818115 20.66269043 23.0838623 20.13788086 22.45092773 19.59716797 C18.10071984 15.89628716 13.67723351 12.29930968 9.19921875 8.75390625 C6.05628327 6.24737333 3.00124772 3.67502514 0 1 C0 0.67 0 0.34 0 0 Z " fill="#821C09" transform="translate(229,537)"/>
<path d="M0 0 C0.99 0.33 1.98 0.66 3 1 C1.71034824 2.37562854 0.37310707 3.70766393 -1 5 C-1.66 5 -2.32 5 -3 5 C-3 5.66 -3 6.32 -3 7 C-4.79036458 7.9765625 -6.58072917 8.953125 -8.37109375 9.9296875 C-10.16618315 10.91410024 -10.16618315 10.91410024 -11 13 C-11.99 13.33 -12.98 13.66 -14 14 C-12.4186938 17.73922129 -10.06769602 20.29649737 -7.3125 23.25 C-6.41789062 24.219375 -5.52328125 25.18875 -4.6015625 26.1875 C-3.31378906 27.5796875 -3.31378906 27.5796875 -2 29 C2.3507089 33.80078224 6.32792481 38.65879973 10 44 C6.69346646 42.58911589 4.8452183 40.94468631 2.5625 38.1875 C-0.14045103 34.94521303 -3.00378808 31.97401775 -6 29 C-7.94027458 27.00075662 -9.84911764 24.97415967 -11.75 22.9375 C-12.24371094 22.42123047 -12.73742187 21.90496094 -13.24609375 21.37304688 C-17.61187852 16.67833312 -17.61187852 16.67833312 -18 13 C-17.01 12.34 -16.02 11.68 -15 11 C-14.34 11.33 -13.68 11.66 -13 12 C-13 11.01 -13 10.02 -13 9 C-10.91796875 7.24609375 -10.91796875 7.24609375 -8.1875 5.4375 C-7.29417969 4.83808594 -6.40085937 4.23867188 -5.48046875 3.62109375 C-4.25263672 2.81865234 -4.25263672 2.81865234 -3 2 C-2.01 1.34 -1.02 0.68 0 0 Z " fill="#D52A09" transform="translate(503,309)"/>
<path d="M0 0 C6.03233443 4.48558201 10.34027856 10.14861209 15 16 C16.6435109 18.00190891 18.289265 20.00197879 19.9375 22 C22.09931602 24.62315594 24.11339797 27.17009695 26 30 C25.625 32.1875 25.625 32.1875 25 34 C23.02 34.495 23.02 34.495 21 35 C21 35.66 21 36.32 21 37 C20.34 36.67 19.68 36.34 19 36 C19 35.01 19 34.02 19 33 C19.99 33 20.98 33 22 33 C21.46738989 28.89129344 19.31384153 26.91805788 16.5 24 C2.56483854 9.04372758 2.56483854 9.04372758 0 0 Z " fill="#AA240B" transform="translate(465,410)"/>
<path d="M0 0 C0.33 0 0.66 0 1 0 C1 33.99 1 67.98 1 103 C2.485 102.01 2.485 102.01 4 101 C3.67 102.32 3.34 103.64 3 105 C1.02 105.495 1.02 105.495 -1 106 C-1.09491027 84.17118636 -0.83153545 62.35095893 -0.53643799 40.5246582 C-0.47481169 35.93767982 -0.41524044 31.35067473 -0.35546875 26.76367188 C-0.23892981 17.84242147 -0.12020878 8.92120166 0 0 Z " fill="#C83614" transform="translate(220,111)"/>
<path d="M0 0 C0.99 0 1.98 0 3 0 C4.76953125 1.87890625 4.76953125 1.87890625 6.8125 4.5625 C10.70668198 9.49555541 14.81031028 14.11860176 19.125 18.6875 C20.33085546 19.96863114 21.53658824 21.24987776 22.7421875 22.53125 C23.30518555 23.129375 23.86818359 23.7275 24.44824219 24.34375 C26.40819101 26.43567775 28.34204639 28.54803738 30.25 30.6875 C31.00023437 31.52861328 31.00023437 31.52861328 31.765625 32.38671875 C33.12422259 34.16235421 34.06426286 35.97404081 35 38 C35.66 38 36.32 38 37 38 C38.7265625 39.96875 38.7265625 39.96875 40.625 42.5 C41.25664063 43.3353125 41.88828125 44.170625 42.5390625 45.03125 C43.02117188 45.6809375 43.50328125 46.330625 44 47 C43.01 47.495 43.01 47.495 42 48 C37.07497653 43.23384825 32.56521115 38.10798056 28 33 C26.45878378 31.29126028 24.9171265 29.58291825 23.375 27.875 C21.91648497 26.25016308 20.45814506 24.62516895 19 23 C18.31164062 22.24074219 17.62328125 21.48148437 16.9140625 20.69921875 C16.28242187 19.99410156 15.65078125 19.28898437 15 18.5625 C14.443125 17.94503906 13.88625 17.32757813 13.3125 16.69140625 C12 15 12 15 11 12 C10.01 11.67 9.02 11.34 8 11 C4 6.54285714 4 6.54285714 4 4 C3.34 4 2.68 4 2 4 C1.34 2.68 0.68 1.36 0 0 Z " fill="#D82A0D" transform="translate(513,355)"/>
<path d="M0 0 C0.495 1.98 0.495 1.98 1 4 C0.01 3.67 -0.98 3.34 -2 3 C-2.05929687 3.84949219 -2.11859375 4.69898437 -2.1796875 5.57421875 C-3.22985364 9.95991258 -5.26844417 12.41147945 -8.125 15.8125 C-9.12924319 17.04399615 -10.1331494 18.27576717 -11.13671875 19.5078125 C-11.6270459 20.10239258 -12.11737305 20.69697266 -12.62255859 21.30957031 C-14.9908288 24.21596927 -17.2203091 27.22818838 -19.46484375 30.23046875 C-21 32 -21 32 -23.12890625 33.58203125 C-25.2123444 34.90775172 -25.2123444 34.90775172 -26 37.5 C-27.16013427 40.40033569 -28.40121966 41.35410579 -31 43 C-31.66 42.67 -32.32 42.34 -33 42 C-32.63648438 41.5560791 -32.27296875 41.1121582 -31.8984375 40.65478516 C-30.26057022 38.6489227 -28.630224 36.63707827 -27 34.625 C-26.42765625 33.92632812 -25.8553125 33.22765625 -25.265625 32.5078125 C-24.72421875 31.8375 -24.1828125 31.1671875 -23.625 30.4765625 C-23.12226563 29.85861816 -22.61953125 29.24067383 -22.1015625 28.60400391 C-20.81129553 27.04952981 -20.81129553 27.04952981 -21 25 C-19.83648828 23.81529499 -18.66735011 22.6355816 -17.47021484 21.48486328 C-14.84507748 18.83357045 -12.60346219 15.87678891 -10.3125 12.9375 C-9.82716797 12.32583984 -9.34183594 11.71417969 -8.84179688 11.08398438 C-6.95117414 8.67181054 -5.22002959 6.44381394 -3.85546875 3.69140625 C-3 2 -3 2 0 0 Z " fill="#A72409" transform="translate(303,109)"/>
<path d="M0 0 C10.3989911 3.19250894 20.12197631 18.14270403 26 27 C27.27734375 30.3828125 27.27734375 30.3828125 28 33 C23.01696984 29.05992964 19.13938075 24.77829083 15.2734375 19.7578125 C14.66757813 18.97148437 14.06171875 18.18515625 13.4375 17.375 C12.87933594 16.64023437 12.32117188 15.90546875 11.74609375 15.1484375 C9.95309106 12.94228206 8.02695484 10.99111477 6 9 C4.90133998 7.8055852 3.81675357 6.59799525 2.75 5.375 C2.22921875 4.78460938 1.7084375 4.19421875 1.171875 3.5859375 C0 2 0 2 0 0 Z " fill="#801907" transform="translate(233,342)"/>
<path d="M0 0 C0.5775 0.226875 1.155 0.45375 1.75 0.6875 C1.42 1.3475 1.09 2.0075 0.75 2.6875 C-0.24 3.0175 -1.23 3.3475 -2.25 3.6875 C-2.58 4.3475 -2.91 5.0075 -3.25 5.6875 C-4.91232915 6.69469391 -6.58014316 7.69283629 -8.25 8.6875 C-10.65348835 10.43787422 -12.98206222 12.27893741 -15.3125 14.125 C-15.92416016 14.60259766 -16.53582031 15.08019531 -17.16601562 15.57226562 C-20.39932447 18.12046255 -23.35500625 20.75347263 -26.25 23.6875 C-27.88978318 24.73099839 -29.55094366 25.74357981 -31.25 26.6875 C-31.58 25.6975 -31.91 24.7075 -32.25 23.6875 C-23.7856307 16.40066161 -15.16953496 9.41165012 -6.25 2.6875 C-5.51394531 2.09324219 -4.77789062 1.49898437 -4.01953125 0.88671875 C-2.25 -0.3125 -2.25 -0.3125 0 0 Z " fill="#A52109" transform="translate(456.25,539.3125)"/>
<path d="M0 0 C4.91292804 1.51736384 8.06141606 4.39116965 11.8125 7.75 C15.66421846 11.14522968 19.46537367 14.4399159 23.6875 17.375 C26.97758555 19.74217076 28.53798155 22.16220156 30 26 C25.97968755 24.65989585 23.9363062 22.99068224 21 20 C19.51764947 18.77007872 18.01632251 17.56278596 16.5 16.375 C10.57668519 11.68939276 4.7867882 6.85215231 -1 2 C-0.67 1.34 -0.34 0.68 0 0 Z " fill="#E9300E" transform="translate(292,587)"/>
<path d="M0 0 C0.721875 0.598125 1.44375 1.19625 2.1875 1.8125 C4.83515477 3.99110652 4.83515477 3.99110652 7.37109375 5.30078125 C10.47443531 7.30665581 12.50805357 9.54242476 14.875 12.375 C15.67679687 13.31085937 16.47859375 14.24671875 17.3046875 15.2109375 C19 18 19 18 19.00390625 20.64453125 C17.79508972 23.4807817 16.57492794 24.55425477 14.0625 26.3125 C13.35222656 26.82425781 12.64195312 27.33601562 11.91015625 27.86328125 C10 29 10 29 8 29 C9.44077046 25.63820226 11.24750021 23.40843732 14 21 C14.66 21 15.32 21 16 21 C11.77312817 15.00334038 7.0052566 9.64568472 1.9765625 4.3203125 C0 2 0 2 0 0 Z " fill="#C42B0D" transform="translate(378,512)"/>
<path d="M0 0 C1.16097048 0.85481377 2.30329434 1.73497946 3.4375 2.625 C4.07558594 3.11226563 4.71367188 3.59953125 5.37109375 4.1015625 C7.6769179 6.7889259 7.94081059 8.46131901 8 12 C6.92843084 14.75007044 5.84110024 17.12246999 4.4375 19.6875 C4.07269531 20.38359375 3.70789063 21.0796875 3.33203125 21.796875 C2.23799825 23.87400758 1.12214197 25.93794424 0 28 C-0.61746094 29.15113281 -1.23492188 30.30226563 -1.87109375 31.48828125 C-3.23066491 34.00202073 -4.60495327 36.50582554 -6 39 C-6.33 39 -6.66 39 -7 39 C-6.65717391 33.62905791 -5.18605764 30.15681246 -2.48046875 25.5390625 C-0.78206429 22.62623163 0.8149093 19.6767647 2.375 16.6875 C2.89835938 15.70136719 3.42171875 14.71523438 3.9609375 13.69921875 C5.17852048 11.13216671 5.17852048 11.13216671 4.79296875 8.7734375 C4.03050756 6.78515114 4.03050756 6.78515114 1.9375 4.9375 C1.298125 4.298125 0.65875 3.65875 0 3 C0 2.01 0 1.02 0 0 Z " fill="#B2270D" transform="translate(557,403)"/>
<path d="M0 0 C0.99 0.33 1.98 0.66 3 1 C3.0825 1.7425 3.165 2.485 3.25 3.25 C3.75696569 6.0521914 3.75696569 6.0521914 5.7109375 7.609375 C8.97377654 11.01698164 11.07712423 14.90179421 13.375 19 C13.85066406 19.80695313 14.32632813 20.61390625 14.81640625 21.4453125 C15.25597656 22.22648437 15.69554688 23.00765625 16.1484375 23.8125 C16.55239746 24.52019531 16.95635742 25.22789063 17.37255859 25.95703125 C18 28 18 28 17.11572266 30.26171875 C16.74753418 30.83535156 16.3793457 31.40898437 16 32 C12.87525041 27.52909713 10.37564768 22.96691328 8 18.0625 C6.03170421 14.02211156 4.05430877 10.04473085 1.75 6.18359375 C0 3 0 3 0 0 Z " fill="#F0330E" transform="translate(104,97)"/>
<path d="M0 0 C-2 2 -2 2 -5.62353516 2.13525391 C-7.17903344 2.09288757 -8.73424915 2.03921439 -10.2890625 1.9765625 C-11.51669815 1.93902359 -11.51669815 1.93902359 -12.76913452 1.90072632 C-15.38817148 1.8184256 -18.00646554 1.72187618 -20.625 1.625 C-22.39840696 1.56677066 -24.17184458 1.50946717 -25.9453125 1.453125 C-30.29730379 1.31283201 -34.64868148 1.15975672 -39 1 C-32.6983457 -5.3016543 -7.49523579 -2.92187158 0 0 Z " fill="#C22304" transform="translate(495,167)"/>
<path d="M0 0 C0.78375 0.04125 1.5675 0.0825 2.375 0.125 C-2.19543172 5.00012716 -7.38247635 8.99886987 -12.625 13.125 C-14.50124458 14.62344295 -16.37629716 16.12337999 -18.25 17.625 C-19.70833333 18.79166667 -21.16666667 19.95833333 -22.625 21.125 C-23.285 20.135 -23.945 19.145 -24.625 18.125 C-20 14.125 -20 14.125 -16.625 14.125 C-16.36589844 13.52945313 -16.10679687 12.93390625 -15.83984375 12.3203125 C-14.53606383 9.96428576 -13.25709396 8.70018257 -11.1875 7 C-10.59066406 6.50242187 -9.99382812 6.00484375 -9.37890625 5.4921875 C-7.84737694 4.29834505 -6.2407298 3.2021532 -4.625 2.125 C-2.625 0.125 -2.625 0.125 0 0 Z " fill="#9C210A" transform="translate(390.625,591.875)"/>
<path d="M0 0 C3.64247857 1.59787975 6.44399679 3.84792042 9.5 6.375 C10.90765625 7.53128906 10.90765625 7.53128906 12.34375 8.7109375 C16.3796969 12.18897409 19.40309813 15.32557663 22 20 C20.66666667 19.33333333 19.33333333 18.66666667 18 18 C16.9790625 17.566875 16.9790625 17.566875 15.9375 17.125 C13.61448312 15.77615149 12.58655129 14.13839522 11 12 C10.01 11.67 9.02 11.34 8 11 C6.29115995 9.37660195 4.62553283 7.70680947 3 6 C2.401875 5.46375 1.80375 4.9275 1.1875 4.375 C0 3 0 3 0 0 Z " fill="#9F220B" transform="translate(257,558)"/>
<path d="M0 0 C5.4704709 1.43200651 8.27914673 5.18040683 11.8125 9.3125 C12.40998047 9.97701172 13.00746094 10.64152344 13.62304688 11.32617188 C17.90589055 16.27469183 17.90589055 16.27469183 18.38671875 19.98046875 C18.25910156 20.64691406 18.13148438 21.31335938 18 22 C16.33333333 20.33333333 14.66666667 18.66666667 13 17 C12.38125 16.39929688 11.7625 15.79859375 11.125 15.1796875 C8.69013074 12.68215616 6.46929808 10.06571761 4.25 7.375 C3.45078125 6.41335938 2.6515625 5.45171875 1.828125 4.4609375 C0 2 0 2 0 0 Z " fill="#971E09" transform="translate(415,352)"/>
<path d="M0 0 C0.33 0 0.66 0 1 0 C1.36621148 3.33192408 1.13775189 4.77586687 -0.64453125 7.67578125 C-1.35996094 8.54589844 -2.07539063 9.41601562 -2.8125 10.3125 C-3.52019531 11.19550781 -4.22789062 12.07851563 -4.95703125 12.98828125 C-7 15 -7 15 -10 15 C-10.37125 15.804375 -10.37125 15.804375 -10.75 16.625 C-14.91666667 24.54166667 -14.91666667 24.54166667 -19.25 26.375 C-20.1575 26.58125 -21.065 26.7875 -22 27 C-16.63863338 20.70039422 -16.63863338 20.70039422 -14.1015625 17.91796875 C-9.51917389 12.89183105 -5.47097275 7.66015486 -1.56640625 2.08984375 C-1.04949219 1.40019531 -0.53257812 0.71054687 0 0 Z " fill="#A2220B" transform="translate(483,447)"/>
<path d="M0 0 C0.66 1.32 1.32 2.64 2 4 C0.9790625 3.566875 0.9790625 3.566875 -0.0625 3.125 C-3.62989238 2.97319607 -4.10609049 3.63151284 -6.6875 5.9375 C-7.55955078 6.78634766 -7.55955078 6.78634766 -8.44921875 7.65234375 C-10 9 -10 9 -12 9 C-12 21.87 -12 34.74 -12 48 C-12.33 48 -12.66 48 -13 48 C-13.19875748 42.45007971 -13.34338653 36.90225847 -13.43945312 31.34960938 C-13.47952119 29.46382538 -13.53399497 27.57828739 -13.60351562 25.69335938 C-14.16141129 10.170733 -14.16141129 10.170733 -11.359375 4.93359375 C-7.73806575 1.07404047 -5.36694609 -0.40850771 0 0 Z " fill="#F02609" transform="translate(230,337)"/>
<path d="M0 0 C4.80767495 1.40990103 7.48398764 4.2719845 10.6875 7.9375 C11.41549805 8.74477539 11.41549805 8.74477539 12.15820312 9.56835938 C18.30057596 16.43934471 18.30057596 16.43934471 18 22 C14.03047983 18.13339332 10.35989674 14.07769841 6.75 9.875 C6.20859375 9.25496094 5.6671875 8.63492187 5.109375 7.99609375 C4.3359375 7.09697266 4.3359375 7.09697266 3.546875 6.1796875 C3.08120117 5.64069824 2.61552734 5.10170898 2.13574219 4.54638672 C1 3 1 3 0 0 Z " fill="#98200A" transform="translate(307,429)"/>
<path d="M0 0 C0.33 0 0.66 0 1 0 C1.01981934 0.83547363 1.03963867 1.67094727 1.06005859 2.53173828 C1.13929229 5.70415045 1.22600283 8.87625603 1.31738281 12.04833984 C1.37339734 14.06723624 1.42119483 16.08635538 1.46875 18.10546875 C1.70245947 26.01263898 2.38444054 33.52022319 3.77978516 41.30029297 C3.85245605 42.19119629 3.92512695 43.08209961 4 44 C3.34 44.66 2.68 45.32 2 46 C-2.05690647 36.68084199 -1.13100472 27.27185148 -0.6875 17.375 C-0.62411937 15.68625471 -0.56225781 13.99745168 -0.50195312 12.30859375 C-0.35214612 8.20485369 -0.18178603 4.10244275 0 0 Z " fill="#C41605" transform="translate(125,381)"/>
<path d="M0 0 C0.99 0.33 1.98 0.66 3 1 C-3.19718477 8.45915695 -10.10416592 15.197493 -17 22 C-17.66 21.67 -18.32 21.34 -19 21 C-19 20.34 -19 19.68 -19 19 C-18.01 19 -17.02 19 -16 19 C-15.938125 18.443125 -15.87625 17.88625 -15.8125 17.3125 C-14.64533489 13.99056852 -12.56764415 12.40018909 -10 10 C-9.4121875 9.38125 -8.824375 8.7625 -8.21875 8.125 C-7.6103125 7.485625 -7.001875 6.84625 -6.375 6.1875 C-5.52035156 5.28064453 -5.52035156 5.28064453 -4.6484375 4.35546875 C-3 3 -3 3 0 3 C0 2.01 0 1.02 0 0 Z " fill="#AE240C" transform="translate(513,485)"/>
<path d="M0 0 C0 0.66 0 1.32 0 2 C-1.37483517 2.95082058 -2.75701225 3.89230406 -4.16894531 4.78710938 C-7.5773464 7.04483425 -10.7007363 9.67860034 -13.875 12.25 C-14.56335938 12.80429687 -15.25171875 13.35859375 -15.9609375 13.9296875 C-17.64242881 15.28422217 -19.32146867 16.64179907 -21 18 C-21.33 16.68 -21.66 15.36 -22 14 C-21.40832031 13.62488281 -20.81664062 13.24976563 -20.20703125 12.86328125 C-15.64206214 9.90684938 -11.75578488 6.97040116 -8 3 C-4.85870079 0.23946433 -4.41910686 0 0 0 Z " fill="#A4220B" transform="translate(421,569)"/>
<path d="M0 0 C4.90500808 1.36250224 6.49219505 3.67619837 9 8 C9.309375 8.721875 9.61875 9.44375 9.9375 10.1875 C10.93689794 12.22900162 10.93689794 12.22900162 13.4375 13.4375 C16.39475215 15.24070253 17.43729532 16.95683826 19 20 C18.34 20.66 17.68 21.32 17 22 C13.98997055 18.6755897 10.99304144 15.33970693 8 12 C7.38511719 11.32453125 6.77023437 10.6490625 6.13671875 9.953125 C3.31856991 6.79232282 1.25367176 4.13711682 0 0 Z " fill="#8F200A" transform="translate(357,282)"/>
<path d="M0 0 C2.78296147 2.46728226 4.32710159 5.16642934 6.0625 8.4375 C6.82240234 9.85869141 6.82240234 9.85869141 7.59765625 11.30859375 C8.75447077 13.52877538 9.89107298 15.7556166 11 18 C10.34 18.99 9.68 19.98 9 21 C7.82786955 19.21190303 6.66244474 17.41940875 5.5 15.625 C4.8503125 14.62726563 4.200625 13.62953125 3.53125 12.6015625 C2 10 2 10 2 8 C1.34 8 0.68 8 0 8 C-0.38063221 5.6739143 -0.71269945 3.33944736 -1 1 C-0.67 0.67 -0.34 0.34 0 0 Z " fill="#98210C" transform="translate(129,426)"/>
<path d="M0 0 C4.75875417 2.08326134 7.8196491 4.48043445 11.3125 8.3125 C12.60607422 9.69888672 12.60607422 9.69888672 13.92578125 11.11328125 C16.1533862 14.21346968 16.70530983 16.23575004 17 20 C14.5625 18.75 14.5625 18.75 12 17 C11.375 14.875 11.375 14.875 11 13 C10.01 12.67 9.02 12.34 8 12 C6.5 10.2578125 6.5 10.2578125 5 8.125 C3.15384047 5.51922275 1.32198068 3.19758885 -1 1 C-0.67 0.67 -0.34 0.34 0 0 Z " fill="#871908" transform="translate(261,375)"/>
<path d="M0 0 C0.78375 0.04125 1.5675 0.0825 2.375 0.125 C1.12992923 2.61514154 -0.09062985 3.2032632 -2.4375 4.6875 C-8.38340482 8.55233814 -13.98509735 12.83065788 -19.625 17.125 C-19.955 15.805 -20.285 14.485 -20.625 13.125 C-18.89778316 11.85151788 -17.16813762 10.58132943 -15.4375 9.3125 C-14.47457031 8.60480469 -13.51164063 7.89710938 -12.51953125 7.16796875 C-9.625 5.125 -9.625 5.125 -6.88671875 3.48828125 C-1.19388889 0.05685185 -1.19388889 0.05685185 0 0 Z " fill="#B52009" transform="translate(552.625,273.875)"/>
<path d="M0 0 C2.80549222 1.14297831 4.28506374 2.29237307 6.4375 4.5 C8.7496127 7.07809997 8.7496127 7.07809997 11.375 7.9375 C16.69460755 10.09067448 20.61652986 13.81673306 23 19 C23.97581759 20.35113205 24.97029741 21.68946944 26 23 C22.07661844 21.38394045 19.28562546 18.68703571 16.25 15.8125 C15.18565401 14.81819821 14.12054799 13.82470937 13.0546875 12.83203125 C12.53616211 12.34814941 12.01763672 11.86426758 11.48339844 11.36572266 C8.89423964 8.98195796 6.21271011 6.70692836 3.5234375 4.4375 C2 3 2 3 0 0 Z " fill="#671608" transform="translate(189,502)"/>
<path d="M0 0 C0.33 0 0.66 0 1 0 C1.34946135 3.26163925 1.19311846 4.70001016 -0.609375 7.5 C-1.31578125 8.325 -2.0221875 9.15 -2.75 10 C-3.44609375 10.825 -4.1421875 11.65 -4.859375 12.5 C-5.56578125 13.325 -6.2721875 14.15 -7 15 C-7.64453125 15.886875 -8.2890625 16.77375 -8.953125 17.6875 C-11.17857522 20.2017491 -12.82503458 21.02987168 -16 22 C-12.4750016 16.45457569 -8.67994248 11.15227932 -4.6875 5.9375 C-4.24293457 5.35331299 -3.79836914 4.76912598 -3.34033203 4.16723633 C-2.2523806 2.75810216 -1.12940642 1.37613174 0 0 Z " fill="#B12509" transform="translate(256,169)"/>
<path d="M0 0 C0.33 0 0.66 0 1 0 C1.34946135 3.26163925 1.19311846 4.70001016 -0.609375 7.5 C-1.31578125 8.325 -2.0221875 9.15 -2.75 10 C-3.44609375 10.825 -4.1421875 11.65 -4.859375 12.5 C-5.56578125 13.325 -6.2721875 14.15 -7 15 C-7.66515625 15.9075 -8.3303125 16.815 -9.015625 17.75 C-11.07169752 20.08129483 -11.97042947 20.67540316 -15 21 C-14.60167969 20.40832031 -14.20335937 19.81664062 -13.79296875 19.20703125 C-10.49140418 14.30594674 -10.49140418 14.30594674 -7.4375 9.25 C-5.63914887 6.43518953 -3.38649145 4.32368905 -1 2 C-0.67 1.34 -0.34 0.68 0 0 Z " fill="#B0240A" transform="translate(239,191)"/>
<path d="M0 0 C7.12894893 1.86465283 10.73635002 6.19693887 15 12 C16.13086538 14.45670755 16.59051419 16.30909325 17 19 C11.24922788 15.49953001 11.24922788 15.49953001 10.09375 13.18359375 C8.63040479 10.26212956 6.59655801 8.19979329 4.375 5.8125 C0 1.09936909 0 1.09936909 0 0 Z " fill="#8D1B07" transform="translate(325,451)"/>
<path d="M0 0 C0.66 0.99 1.32 1.98 2 3 C-0.08077561 5.41887917 -2.16507276 7.83469885 -4.25 10.25 C-4.83652344 10.93191406 -5.42304688 11.61382812 -6.02734375 12.31640625 C-8.91681307 15.66039884 -11.80913074 18.9355018 -15 22 C-15.33 21.01 -15.66 20.02 -16 19 C-14.3046875 16.4765625 -14.3046875 16.4765625 -11.875 13.625 C-11.08867187 12.68914062 -10.30234375 11.75328125 -9.4921875 10.7890625 C-7.82294786 8.92097927 -6.09693822 7.10220389 -4.3203125 5.3359375 C-1.88090029 3.03024366 -1.88090029 3.03024366 0 0 Z " fill="#A92208" transform="translate(330,215)"/>
<path d="M0 0 C4.16296461 1.35369129 6.38753152 3.08643889 9.25 6.375 C9.93578125 7.14585937 10.6215625 7.91671875 11.328125 8.7109375 C12.95860567 10.94332458 13.4700704 12.34465382 14 15 C15.47890069 16.73026102 15.47890069 16.73026102 17 18 C16.67 18.66 16.34 19.32 16 20 C12.54833025 16.63385835 9.36751098 13.16679184 6.3125 9.4375 C5.54550781 8.50808594 4.77851563 7.57867187 3.98828125 6.62109375 C2.33674717 4.44392407 1.09458847 2.48770107 0 0 Z " fill="#861A06" transform="translate(278,395)"/>
<path d="M0 0 C0.99 0.33 1.98 0.66 3 1 C-7.70139494 10.77927928 -7.70139494 10.77927928 -13 14 C-15.98477185 13.64294318 -16.7641508 13.27796513 -18.75 10.9375 C-19.1625 10.298125 -19.575 9.65875 -20 9 C-18.8553125 9.495 -18.8553125 9.495 -17.6875 10 C-15.00930865 11.17436686 -15.00930865 11.17436686 -12 11 C-12 10.34 -12 9.68 -12 9 C-10.01399663 7.6459068 -8.01182457 6.31542376 -6 5 C-4.64802142 3.68557638 -3.30973998 2.3565164 -2 1 C-1.34 0.67 -0.68 0.34 0 0 Z " fill="#8C1F0A" transform="translate(358,617)"/>
<path d="M0 0 C4.81032642 1.41325284 7.5251227 4.28234931 10.75 7.9375 C11.24371094 8.47568359 11.73742187 9.01386719 12.24609375 9.56835938 C14.45715891 12.0247619 15.94405132 13.83215397 17 17 C15.65686601 16.35330586 14.32608822 15.68096422 13 15 C12.21625 14.62875 11.4325 14.2575 10.625 13.875 C5.76611572 10.40436837 2.52914367 5.35794892 0 0 Z " fill="#BA250A" transform="translate(233,342)"/>
<path d="M0 0 C5.57648047 2.2809063 8.66451423 5.4927367 12.4375 10 C12.99115234 10.6290625 13.54480469 11.258125 14.11523438 11.90625 C15.49879415 13.53275116 16.76062973 15.26111962 18 17 C17.67 17.99 17.34 18.98 17 20 C16.55269531 19.46890625 16.10539062 18.9378125 15.64453125 18.390625 C12.3085706 14.49274347 9.03320123 11.18410623 5 8 C0 2.7107438 0 2.7107438 0 0 Z " fill="#F1300E" transform="translate(375,304)"/>
<path d="M0 0 C4.93457513 2.11998609 7.86135882 4.6515608 11.375 8.6875 C11.82488281 9.19861328 12.27476562 9.70972656 12.73828125 10.23632812 C13.83395249 11.48352837 14.91819929 12.74074977 16 14 C15.67 14.99 15.34 15.98 15 17 C9.38777996 12.63493997 4.23917386 7.73701528 0 2 C0 1.34 0 0.68 0 0 Z " fill="#A62008" transform="translate(433,374)"/>
<path d="M0 0 C0.66 0.33 1.32 0.66 2 1 C-0.02291482 5.35833182 -2.88356351 8.63375766 -6 12.25 C-6.5465625 12.8996875 -7.093125 13.549375 -7.65625 14.21875 C-8.44515625 15.13914063 -8.44515625 15.13914063 -9.25 16.078125 C-9.72953125 16.63918945 -10.2090625 17.20025391 -10.703125 17.77832031 C-12 19 -12 19 -14 19 C-12.21413601 13.79123002 -9.17062797 9.60190597 -5 6 C-4.34 6 -3.68 6 -3 6 C-2.690625 5.195625 -2.38125 4.39125 -2.0625 3.5625 C-1 1 -1 1 0 0 Z " fill="#A4230A" transform="translate(309,240)"/>
<path d="M0 0 C0.99 0.33 1.98 0.66 3 1 C1.41517419 5.75447744 -3.19181981 7.07272811 -7.4375 9.25 C-7.953125 9.4975 -8.46875 9.745 -9 10 C-9 10.66 -9 11.32 -9 12 C-10.65 12.66 -12.3 13.32 -14 14 C-13.17334658 9.29582928 -10.28234431 7.42656713 -6.625 4.6875 C-5.73941406 3.98657227 -5.73941406 3.98657227 -4.8359375 3.27148438 C-3.1015625 1.94921875 -3.1015625 1.94921875 0 0 Z " fill="#AB230A" transform="translate(528,290)"/>
<path d="M0 0 C0.99 0.33 1.98 0.66 3 1 C1.71034824 2.37562854 0.37310707 3.70766393 -1 5 C-1.66 5 -2.32 5 -3 5 C-3 5.66 -3 6.32 -3 7 C-4.79036458 7.9765625 -6.58072917 8.953125 -8.37109375 9.9296875 C-10.16618315 10.91410024 -10.16618315 10.91410024 -11 13 C-11.66 13 -12.32 13 -13 13 C-13 11.68 -13 10.36 -13 9 C-10.91796875 7.1484375 -10.91796875 7.1484375 -8.1875 5.375 C-7.29417969 4.78460938 -6.40085937 4.19421875 -5.48046875 3.5859375 C-4.25263672 2.80089844 -4.25263672 2.80089844 -3 2 C-2.01 1.34 -1.02 0.68 0 0 Z " fill="#A41F09" transform="translate(503,309)"/>
<path d="M0 0 C0.99 0.33 1.98 0.66 3 1 C0.88424494 3.50795682 -1.24407321 6.00492749 -3.375 8.5 C-3.97828125 9.21542969 -4.5815625 9.93085938 -5.203125 10.66796875 C-5.78320312 11.34472656 -6.36328125 12.02148438 -6.9609375 12.71875 C-7.49509277 13.34716797 -8.02924805 13.97558594 -8.57958984 14.62304688 C-10 16 -10 16 -12 16 C-10.45333439 12.53611348 -8.38609908 9.81376173 -6 6.875 C-5.29875 6.00617188 -4.5975 5.13734375 -3.875 4.2421875 C-2 2 -2 2 0 0 Z " fill="#A72108" transform="translate(344,199)"/>
<path d="M0 0 C0.33 0.99 0.66 1.98 1 3 C-1.44350496 5.62092116 -4.13403188 7.63024036 -7.0625 9.6875 C-8.37927734 10.62142578 -8.37927734 10.62142578 -9.72265625 11.57421875 C-12 13 -12 13 -14 13 C-11.49025568 6.83971849 -6.88304492 3.67411133 -1 1 C-0.67 0.67 -0.34 0.34 0 0 Z " fill="#B0280F" transform="translate(487,234)"/>
<path d="M0 0 C2.5935448 0.38256192 3.79113994 0.79065081 5.66796875 2.671875 C10.72417428 9.58678848 10.72417428 9.58678848 11 14 C6.75782295 10.64572048 3.22261312 7.36000599 0 3 C0 2.01 0 1.02 0 0 Z " fill="#951D0A" transform="translate(367,498)"/>
<path d="M0 0 C0.99 0.33 1.98 0.66 3 1 C-1.23824366 7.40469079 -5.48239422 13.78829206 -10 20 C-10.58203125 18.140625 -10.58203125 18.140625 -11 16 C-9.6875 13.75 -9.6875 13.75 -8 12 C-7.34 12 -6.68 12 -6 12 C-6 11.01 -6 10.02 -6 9 C-5.34 9 -4.68 9 -4 9 C-4 8.01 -4 7.02 -4 6 C-3.34 6 -2.68 6 -2 6 C-2 5.01 -2 4.02 -2 3 C-1.34 3 -0.68 3 0 3 C0 2.01 0 1.02 0 0 Z " fill="#A01E0A" transform="translate(547,442)"/>
<path d="M0 0 C5.13311592 1.66071398 9.49655989 4.49426648 12.3125 9.1875 C12.539375 9.785625 12.76625 10.38375 13 11 C13.33 11.66 13.66 12.32 14 13 C10.24269753 11.3718356 7.383177 8.98598083 4.25 6.375 C3.26515625 5.55773437 2.2803125 4.74046875 1.265625 3.8984375 C0.51796875 3.27195312 -0.2296875 2.64546875 -1 2 C-0.67 1.34 -0.34 0.68 0 0 Z " fill="#751D08" transform="translate(292,587)"/>
<path d="M0 0 C2.1640625 0.36328125 2.1640625 0.36328125 4 1 C-0.35842441 5.59687924 -4.74276241 9.45941142 -10 13 C-10 11.68 -10 10.36 -10 9 C-9.01 9 -8.02 9 -7 9 C-6.6596875 8.1646875 -6.6596875 8.1646875 -6.3125 7.3125 C-4.59377841 4.28427625 -2.67211603 2.22676336 0 0 Z " fill="#A71E08" transform="translate(489,508)"/>
<path d="M0 0 C0.556875 0.28875 1.11375 0.5775 1.6875 0.875 C3.97846462 2.051797 3.97846462 2.051797 6.4375 2.8125 C10.99681332 4.92535251 14.10921991 8.35899433 16 13 C12.55872939 11.4554297 9.81303858 9.417316 6.875 7.0625 C6.00617188 6.37285156 5.13734375 5.68320312 4.2421875 4.97265625 C2 3 2 3 0 0 Z " fill="#6D1607" transform="translate(322,613)"/>
<path d="M0 0 C6.61632767 4.87155196 6.61632767 4.87155196 8.0625 9.125 C7.99877175 12.05649951 7.58966836 13.56874251 6 16 C5.34 16 4.68 16 4 16 C3.67 16.66 3.34 17.32 3 18 C3.92727273 12.17142857 3.92727273 12.17142857 4.875 9.9375 C4.91625 9.298125 4.9575 8.65875 5 8 C3.37550757 6.29220027 1.70779973 4.62449243 0 3 C0 2.01 0 1.02 0 0 Z " fill="#D02B0D" transform="translate(557,403)"/>
<path d="M0 0 C0.99 0.33 1.98 0.66 3 1 C-0.71750779 5.20240011 -5.31660979 7.99782679 -10 11 C-10.33 10.01 -10.66 9.02 -11 8 C-9.23871656 6.63343543 -7.46563912 5.28205915 -5.6875 3.9375 C-4.70136719 3.18339844 -3.71523438 2.42929687 -2.69921875 1.65234375 C-1.80847656 1.10707031 -0.91773438 0.56179688 0 0 Z " fill="#A0230B" transform="translate(566,263)"/>
<path d="M0 0 C2.49361571 1.20381448 4.68143083 2.45428722 7 4 C7.9590625 4.433125 7.9590625 4.433125 8.9375 4.875 C11.41512632 6.22643254 13.08334485 7.94644091 15 10 C14.34 10.66 13.68 11.32 13 12 C8.31831119 8.6194257 3.9045295 5.27057914 0 1 C0 0.67 0 0.34 0 0 Z " fill="#881C0C" transform="translate(215,525)"/>
<path d="M0 0 C0.99 0.66 1.98 1.32 3 2 C3 3.32 3 4.64 3 6 C4.2684375 7.2375 4.2684375 7.2375 5.5625 8.5 C6.366875 9.325 7.17125 10.15 8 11 C7.67 12.32 7.34 13.64 7 15 C4.03 11.37 1.06 7.74 -2 4 C-1.34 2.68 -0.68 1.36 0 0 Z " fill="#DC320F" transform="translate(487,320)"/>
<path d="M0 0 C0.99 0.33 1.98 0.66 3 1 C3.0825 1.7425 3.165 2.485 3.25 3.25 C3.78810733 6.11886662 3.78810733 6.11886662 6 8 C8.37783838 10.37783838 8.59009208 11.72073665 9 15 C9.32483418 16.33542939 9.6550855 17.66961551 10 19 C6.89163031 16.32201996 5.23862093 13.08573456 3.3125 9.5 C2.68988281 8.3553125 2.06726563 7.210625 1.42578125 6.03125 C0 3 0 3 0 0 Z " fill="#79200A" transform="translate(104,97)"/>
<path d="M0 0 C0.721875 0.598125 1.44375 1.19625 2.1875 1.8125 C4.87732394 4.03177437 4.87732394 4.03177437 7.6875 5.4375 C10.5133587 7.34686399 11.10684896 8.75217804 12 12 C12 12.99 12 13.98 12 15 C9.99390948 12.88046983 7.99506397 10.75486559 6 8.625 C5.42765625 8.02171875 4.8553125 7.4184375 4.265625 6.796875 C3.72421875 6.21679688 3.1828125 5.63671875 2.625 5.0390625 C1.87089844 4.23782959 1.87089844 4.23782959 1.1015625 3.42041016 C0 2 0 2 0 0 Z " fill="#751906" transform="translate(378,512)"/>
<path d="M0 0 C4.55479617 1.9668438 7.29946128 3.79916199 10 8 C10.75 10.8125 10.75 10.8125 11 13 C6.74418856 9.87072688 3.0800315 6.29722607 0 2 C0 1.34 0 0.68 0 0 Z " fill="#7F1C07" transform="translate(354,484)"/>
<path d="M0 0 C0.33 0 0.66 0 1 0 C1.38854209 2.28940956 1.7604628 4.58164574 2.125 6.875 C2.33382812 8.15117187 2.54265625 9.42734375 2.7578125 10.7421875 C2.83773437 11.81726563 2.91765625 12.89234375 3 14 C2.34 14.66 1.68 15.32 1 16 C-1.35785972 11.4316468 -1.42484112 7.02893321 -1 2 C-0.67 1.34 -0.34 0.68 0 0 Z " fill="#AD220C" transform="translate(126,411)"/>
<path d="M0 0 C0.33 0 0.66 0 1 0 C1.33 7.92 1.66 15.84 2 24 C2.99 23.34 3.98 22.68 5 22 C4.67 23.32 4.34 24.64 4 26 C2.68 26.33 1.36 26.66 0 27 C0 18.09 0 9.18 0 0 Z " fill="#C72009" transform="translate(219,190)"/>
<path d="M0 0 C0.99 0 1.98 0 3 0 C9 8 9 8 9 13 C7.88625 11.63875 7.88625 11.63875 6.75 10.25 C5.13067774 8.28928217 3.54320262 6.56789437 1.6875 4.8125 C0 3 0 3 0 0 Z " fill="#8A1E08" transform="translate(296,415)"/>
<path d="M0 0 C0.99 0 1.98 0 3 0 C6.35665609 3.36635741 8.56629155 7.2292071 9 12 C7.33333333 10.33333333 5.66666667 8.66666667 4 7 C3.236875 6.29875 2.47375 5.5975 1.6875 4.875 C0 3 0 3 0 0 Z " fill="#901E0A" transform="translate(458,403)"/>
<path d="M0 0 C4.13937592 3.30015998 7.58662205 6.17324411 10 11 C9.01 11.33 8.02 11.66 7 12 C3.46730171 8.09543873 1.36144033 5.19822672 0 0 Z " fill="#BE250B" transform="translate(340,465)"/>
<path d="M0 0 C0.99 0.33 1.98 0.66 3 1 C0.03 4.63 -2.94 8.26 -6 12 C-6.33 10.68 -6.66 9.36 -7 8 C-6.34 7.67 -5.68 7.34 -5 7 C-3.98133771 5.34467377 -2.98189187 3.67739862 -2 2 C-1.34 1.34 -0.68 0.68 0 0 Z " fill="#A5200A" transform="translate(533,462)"/>
<path d="M0 0 C2.1875 0.0625 2.1875 0.0625 5 1 C6.93157957 3.1717219 8.48201687 5.52601047 10 8 C9.67 8.66 9.34 9.32 9 10 C7.49410612 8.71520959 5.99542625 7.42195918 4.5 6.125 C3.6646875 5.40570313 2.829375 4.68640625 1.96875 3.9453125 C1.3190625 3.30335938 0.669375 2.66140625 0 2 C0 1.34 0 0.68 0 0 Z " fill="#9D1F08" transform="translate(476,426)"/>
<path d="M0 0 C2.26713917 1.09158553 4.41169752 2.25103508 6.5625 3.5625 C9.00654778 5.11858764 9.00654778 5.11858764 12 6 C13.6875 9.0625 13.6875 9.0625 15 12 C10.99396172 10.66465391 8.87507653 9.04932359 6 6 C4.92596619 5.09303812 3.84219363 4.19750935 2.75 3.3125 C1.8425 2.549375 0.935 1.78625 0 1 C0 0.67 0 0.34 0 0 Z " fill="#651907" transform="translate(307,601)"/>
<path d="M0 0 C3.75834487 1.72552941 5.66170012 3.5328657 8 7 C8.75 9.8125 8.75 9.8125 9 12 C4.85838732 10.27432805 3.43221816 8.289707 1.6875 4.3125 C1.10988057 2.88100837 0.54233885 1.445227 0 0 Z " fill="#A2220A" transform="translate(269,383)"/>
<path d="M0 0 C0.66 1.32 1.32 2.64 2 4 C1.278125 3.731875 0.55625 3.46375 -0.1875 3.1875 C-3.26390537 2.65105845 -3.26390537 2.65105845 -5.8125 5.4375 C-6.534375 6.283125 -7.25625 7.12875 -8 8 C-8.66 7.67 -9.32 7.34 -10 7 C-7.6551217 1.76911763 -5.98347266 -0.48514643 0 0 Z " fill="#9D2409" transform="translate(230,337)"/>
<path d="M0 0 C0.33 0.99 0.66 1.98 1 3 C0.54625 3.391875 0.0925 3.78375 -0.375 4.1875 C-2.15460145 5.95145032 -2.15460145 5.95145032 -2.9375 8.5 C-4.15477378 11.36417361 -5.40797337 12.35838313 -8 14 C-8.66 13.67 -9.32 13.34 -10 13 C-5.05 6.565 -5.05 6.565 0 0 Z " fill="#992209" transform="translate(280,138)"/>
<path d="M0 0 C4.875 4.75 4.875 4.75 6 7 C5.01 8.485 5.01 8.485 4 10 C2 8.9375 2 8.9375 0 7 C-0.25 3.3125 -0.25 3.3125 0 0 Z " fill="#B9270A" transform="translate(139,444)"/>
<path d="M0 0 C0.33 0 0.66 0 1 0 C1.22212255 2.74951693 1.42815588 5.49865612 1.625 8.25 C1.68945312 9.02730469 1.75390625 9.80460937 1.8203125 10.60546875 C2.30707097 17.72431144 2.30707097 17.72431144 0 21 C-1.01202288 13.82242235 -0.88826175 7.18808741 0 0 Z " fill="#D93311" transform="translate(218,426)"/>
<path d="M0 0 C5.75 2.75 5.75 2.75 8 5 C8.71927295 7.31765729 9.3909893 9.65095874 10 12 C8.33333333 10.33333333 6.66666667 8.66666667 5 7 C4.071875 6.113125 3.14375 5.22625 2.1875 4.3125 C0 2 0 2 0 0 Z " fill="#731A07" transform="translate(405,340)"/>
<path d="M0 0 C5.08537538 2.27965103 7.27066759 5.19117623 10 10 C8.66666667 9.33333333 7.33333333 8.66666667 6 8 C5.29875 7.7525 4.5975 7.505 3.875 7.25 C1.10521317 5.40347545 0.81519046 3.12489677 0 0 Z " fill="#951C0A" transform="translate(269,568)"/>
<path d="M0 0 C-1.5830577 4.2742558 -4.50568404 6.26531794 -8 9 C-7.64598897 5.81390075 -7.16972964 4.20933322 -5.125 1.6875 C-3 0 -3 0 0 0 Z " fill="#AA240B" transform="translate(525,475)"/>
<path d="M0 0 C0.99 0 1.98 0 3 0 C5.75 2.8125 5.75 2.8125 8 6 C7.67 6.99 7.34 7.98 7 9 C1.21538462 5.67692308 1.21538462 5.67692308 0.125 2.25 C0.08375 1.5075 0.0425 0.765 0 0 Z " fill="#BF240A" transform="translate(401,334)"/>
<path d="M0 0 C0.33 0 0.66 0 1 0 C1.3125 3.25 1.3125 3.25 1 7 C-1.70446832 9.85471656 -4.09209045 11.42105044 -8 12 C-6.63016497 8.83884224 -6.0109362 8.0072908 -3 6 C-2.01 6 -1.02 6 0 6 C0 4.02 0 2.04 0 0 Z " fill="#D02F0D" transform="translate(498,222)"/>
<path d="M0 0 C2.3125 0.1875 2.3125 0.1875 5 1 C6.625 3.3125 6.625 3.3125 8 6 C8.98244845 7.34631825 9.97676564 8.68441297 11 10 C8.06120516 8.64763423 5.70767089 7.10057341 3.25 5 C2.63640625 4.484375 2.0228125 3.96875 1.390625 3.4375 C0 2 0 2 0 0 Z " fill="#751B0B" transform="translate(280,578)"/>
<path d="M0 0 C0.33 0.99 0.66 1.98 1 3 C-2.87564767 6.61139896 -2.87564767 6.61139896 -5 8 C-7.375 7.8125 -7.375 7.8125 -9 7 C-6.03716687 4.61327331 -3.05729491 2.2646629 0 0 Z " fill="#BE250A" transform="translate(350,569)"/>
<path d="M0 0 C-4.455 3.465 -4.455 3.465 -9 7 C-9.33 6.01 -9.66 5.02 -10 4 C-4.5 -1.125 -4.5 -1.125 0 0 Z " fill="#9B1E09" transform="translate(476,525)"/>
<path d="M0 0 C4.37859255 0.50522222 6.81651224 3.17827222 10 6 C9.67 6.99 9.34 7.98 9 9 C7.49704815 7.69088122 5.99770689 6.37761608 4.5 5.0625 C3.6646875 4.33160156 2.829375 3.60070312 1.96875 2.84765625 C1.3190625 2.23792969 0.669375 1.62820313 0 1 C0 0.67 0 0.34 0 0 Z " fill="#E2270B" transform="translate(275,516)"/>
<path d="M0 0 C3.52238047 1.56367357 6.27123994 3.69495889 9.25 6.125 C10.14203125 6.84945312 11.0340625 7.57390625 11.953125 8.3203125 C12.62859375 8.87460937 13.3040625 9.42890625 14 10 C13.34 10.66 12.68 11.32 12 12 C9.99698881 10.19073245 7.99751914 8.377813 6 6.5625 C5.42765625 6.04623047 4.8553125 5.52996094 4.265625 4.99804688 C2.82480421 3.6858708 1.41014216 2.34509096 0 1 C0 0.67 0 0.34 0 0 Z " fill="#F1300F" transform="translate(209,518)"/>
<path d="M0 0 C0.33 0 0.66 0 1 0 C1.13501894 2.43934225 1.23403897 4.87124104 1.3125 7.3125 C1.35439453 8.00279297 1.39628906 8.69308594 1.43945312 9.40429688 C1.48828125 11.42578125 1.48828125 11.42578125 1 15 C-1.51953125 16.98046875 -1.51953125 16.98046875 -4 18 C-3.6875 16.0625 -3.6875 16.0625 -3 14 C-2.01 13.67 -1.02 13.34 0 13 C0 8.71 0 4.42 0 0 Z " fill="#AF1E07" transform="translate(580,241)"/>
<path d="M0 0 C2.72426311 2.35277269 3.8141763 4.62496331 5 8 C4.01 8.495 4.01 8.495 3 9 C2.01 8.67 1.02 8.34 0 8 C-0.38063221 5.6739143 -0.71269945 3.33944736 -1 1 C-0.67 0.67 -0.34 0.34 0 0 Z " fill="#AA240C" transform="translate(129,426)"/>
<path d="M0 0 C5.75 2.625 5.75 2.625 8 6 C8.38499891 7.65549531 8.72793135 9.3222433 9 11 C7.33333333 9.33333333 5.66666667 7.66666667 4 6 C3.236875 5.278125 2.47375 4.55625 1.6875 3.8125 C0 2 0 2 0 0 Z " fill="#741908" transform="translate(375,304)"/>
<path d="M0 0 C3.82946843 1.45255699 5.12050295 3.42895561 7 7 C6.34 7.66 5.68 8.32 5 9 C0 3.375 0 3.375 0 0 Z " fill="#AA240B" transform="translate(369,295)"/>
<path d="M0 0 C0.78375 0.04125 1.5675 0.0825 2.375 0.125 C-0.73516455 3.41288824 -3.64118925 5.96235988 -7.625 8.125 C-7.625 6.805 -7.625 5.485 -7.625 4.125 C-6.635 3.465 -5.645 2.805 -4.625 2.125 C-2.625 0.125 -2.625 0.125 0 0 Z " fill="#921F0B" transform="translate(390.625,591.875)"/>
<path d="M0 0 C1.48285242 0.95262034 2.96118201 1.91228405 4.4375 2.875 C5.67306641 3.67550781 5.67306641 3.67550781 6.93359375 4.4921875 C9 6 9 6 10 8 C9.34 8.66 8.68 9.32 8 10 C6.66070495 8.71451591 5.32871357 7.42141845 4 6.125 C2.88625 5.04605469 2.88625 5.04605469 1.75 3.9453125 C0 2 0 2 0 0 Z " fill="#87220A" transform="translate(155,467)"/>
<path d="M0 0 C0.66 0.33 1.32 0.66 2 1 C2 1.99 2 2.98 2 4 C-3.2734375 7.22265625 -3.2734375 7.22265625 -5 8 C-5.66 7.67 -6.32 7.34 -7 7 C-5.47005208 5.76302083 -3.94010417 4.52604167 -2.41015625 3.2890625 C-0.86733563 2.0333609 -0.86733563 2.0333609 0 0 Z " fill="#B1200A" transform="translate(371,550)"/>
<path d="M0 0 C0.33 0 0.66 0 1 0 C1.61528766 5.07612318 -0.38341651 7.82982006 -3 12 C-3.33 12 -3.66 12 -4 12 C-3.53439347 7.25081338 -2.83067342 3.89217595 0 0 Z " fill="#C9280D" transform="translate(554,430)"/>
<path d="M0 0 C0.33 0.66 0.66 1.32 1 2 C-1.25 4.5625 -1.25 4.5625 -4 7 C-6.3125 6.8125 -6.3125 6.8125 -8 6 C-2.25 1.125 -2.25 1.125 0 0 Z " fill="#B1260C" transform="translate(437,271)"/>
<path d="M0 0 C0.66 0 1.32 0 2 0 C1.42676569 3.86933162 -0.38953552 6.15222057 -3 9 C-3.66 9 -4.32 9 -5 9 C-3.7580393 5.56072421 -2.44259716 2.74792181 0 0 Z " fill="#C52609" transform="translate(300,250)"/>
<path d="M0 0 C2.475 0.495 2.475 0.495 5 1 C5 3.31 5 5.62 5 8 C4.01 8 3.02 8 2 8 C2 6.02 2 4.04 2 2 C1.34 2 0.68 2 0 2 C0 1.34 0 0.68 0 0 Z " fill="#E13E15" transform="translate(217,97)"/>
<path d="M0 0 C0.99 0.33 1.98 0.66 3 1 C0.51047079 3.66735273 -1.63408134 5.55746343 -5 7 C-5.33 6.01 -5.66 5.02 -6 4 C-3.1875 1.9375 -3.1875 1.9375 0 0 Z " fill="#A21F08" transform="translate(511,303)"/>
<path d="M0 0 C0.33 1.32 0.66 2.64 1 4 C-3.75 8 -3.75 8 -6 8 C-5.65120368 4.74456771 -4.97866739 3.98126893 -2.4375 1.75 C-1.633125 1.1725 -0.82875 0.595 0 0 Z " fill="#B8290D" transform="translate(382,597)"/>
<path d="M0 0 C0.99 0.33 1.98 0.66 3 1 C0.42215154 3.64752004 -1.91648098 5.94432065 -5 8 C-5.33 7.01 -5.66 6.02 -6 5 C-3 3 -3 3 0 3 C0 2.01 0 1.02 0 0 Z " fill="#9B200B" transform="translate(463,531)"/>
<path d="M0 0 C0.99 0.33 1.98 0.66 3 1 C2.67 1.99 2.34 2.98 2 4 C3.37249963 6.67676547 3.37249963 6.67676547 5 9 C3.125 8.6875 3.125 8.6875 1 8 C-1 5 -1 5 -0.625 2.3125 C-0.41875 1.549375 -0.2125 0.78625 0 0 Z " fill="#C82A0A" transform="translate(284,270)"/>
<path d="M0 0 C3.34998521 1.11666174 3.79340222 1.74694925 5.6875 4.5625 C6.12449219 5.20316406 6.56148438 5.84382813 7.01171875 6.50390625 C7.33785156 6.99761719 7.66398437 7.49132812 8 8 C7.67 8.66 7.34 9.32 7 10 C3.01338914 7.34225943 1.50027477 4.50082432 0 0 Z " fill="#EB2B0C" transform="translate(302,421)"/>
<path d="M0 0 C3.99996286 1.33332095 4.83782337 3.4957827 7 7 C6.01 7.33 5.02 7.66 4 8 C3.7525 7.360625 3.505 6.72125 3.25 6.0625 C2.18437567 3.81258459 2.18437567 3.81258459 -0.125 3.25 C-1.053125 3.12625 -1.053125 3.12625 -2 3 C-1.34 2.01 -0.68 1.02 0 0 Z " fill="#EB3411" transform="translate(228,334)"/>
<path d="M0 0 C-2.61514317 2.12038635 -5.19637616 4.13091744 -8 6 C-8 4.68 -8 3.36 -8 2 C-3.82258065 -1.27419355 -3.82258065 -1.27419355 0 0 Z " fill="#992008" transform="translate(540,285)"/>
<path d="M0 0 C0.33 0 0.66 0 1 0 C1.3125 2.25 1.3125 2.25 1 5 C-1.5 7.3125 -1.5 7.3125 -4 9 C-4.66 8.67 -5.32 8.34 -6 8 C-5.02471263 6.66382648 -4.04466681 5.3311249 -3.0625 4 C-2.24458984 2.88625 -2.24458984 2.88625 -1.41015625 1.75 C-0.94480469 1.1725 -0.47945312 0.595 0 0 Z " fill="#A31E07" transform="translate(256,169)"/>
<path d="M0 0 C0 3 0 3 -2.5 5.6875 C-3.325 6.450625 -4.15 7.21375 -5 8 C-4.67 5.69 -4.34 3.38 -4 1 C-2.68 0.67 -1.36 0.34 0 0 Z " fill="#CA2809" transform="translate(286,133)"/>
<path d="M0 0 C3.65316671 1.24976756 4.78065836 1.67098753 7 5 C4.6875 5.25 4.6875 5.25 2 5 C0.1875 3 0.1875 3 -1 1 C-0.67 0.67 -0.34 0.34 0 0 Z " fill="#AE1E09" transform="translate(292,587)"/>
<path d="M0 0 C0.8353125 0.37125 0.8353125 0.37125 1.6875 0.75 C0.6875 2.75 0.6875 2.75 -1.6875 3.9375 C-4.3125 4.75 -4.3125 4.75 -7.3125 3.75 C-2.88173077 -0.31153846 -2.88173077 -0.31153846 0 0 Z " fill="#B3270E" transform="translate(456.3125,539.25)"/>
<path d="M0 0 C3.33523252 1.38009621 5.18607951 2.84950652 7 6 C6.67 6.99 6.34 7.98 6 9 C4.99406757 7.8803014 3.9954151 6.7540588 3 5.625 C2.443125 4.99851562 1.88625 4.37203125 1.3125 3.7265625 C0 2 0 2 0 0 Z " fill="#E03313" transform="translate(182,493)"/>
<path d="M0 0 C3.57410797 2.68058098 6.31941902 5.42589203 9 9 C8.67 9.66 8.34 10.32 8 11 C6.62437146 9.71034824 5.29233607 8.37310707 4 7 C4 6.34 4 5.68 4 5 C3.01 4.67 2.02 4.34 1 4 C0.3125 1.9375 0.3125 1.9375 0 0 Z " fill="#330D04" transform="translate(144,454)"/>
<path d="M0 0 C3.91402949 1.26941497 5.79072873 2.51167694 8 6 C7.01 6.33 6.02 6.66 5 7 C3.29115995 5.37660195 1.62553283 3.70680947 0 2 C0 1.34 0 0.68 0 0 Z " fill="#9E2108" transform="translate(233,342)"/>
<path d="M0 0 C0 4.31618166 -2.13270348 5.92789659 -5 9 C-5.66 9 -6.32 9 -7 9 C-7 8.01 -7 7.02 -7 6 C-6.360625 5.731875 -5.72125 5.46375 -5.0625 5.1875 C-2.66868314 4.11332248 -2.66868314 4.11332248 -2 1 C-1.34 0.67 -0.68 0.34 0 0 Z " fill="#EE3510" transform="translate(226,211)"/>
<path d="M0 0 C0.33 0 0.66 0 1 0 C1.3125 2.25 1.3125 2.25 1 5 C-1.5 7.3125 -1.5 7.3125 -4 9 C-4.66 8.67 -5.32 8.34 -6 8 C-5.02471263 6.66382648 -4.04466681 5.3311249 -3.0625 4 C-2.24458984 2.88625 -2.24458984 2.88625 -1.41015625 1.75 C-0.94480469 1.1725 -0.47945313 0.595 0 0 Z " fill="#951D07" transform="translate(263,160)"/>
<path d="M0 0 C3.29967665 2.80472516 5.08459104 6.16918209 7 10 C6.67 10.99 6.34 11.98 6 13 C2.85487785 8.70166639 1.24303439 5.17930997 0 0 Z " fill="#340802" transform="translate(114,116)"/>
<path d="M0 0 C0.33 0 0.66 0 1 0 C1.3125 2.25 1.3125 2.25 1 5 C-1.5 7.3125 -1.5 7.3125 -4 9 C-4.66 8.67 -5.32 8.34 -6 8 C-5.02471263 6.66382648 -4.04466681 5.3311249 -3.0625 4 C-2.24458984 2.88625 -2.24458984 2.88625 -1.41015625 1.75 C-0.94480469 1.1725 -0.47945313 0.595 0 0 Z " fill="#952109" transform="translate(310,99)"/>
<path d="M0 0 C3.7910119 1.44950455 7.3874638 3.15172566 11 5 C9.02 5.99 9.02 5.99 7 7 C5.83040013 6.02433888 4.66438823 5.044375 3.5 4.0625 C2.8503125 3.51722656 2.200625 2.97195313 1.53125 2.41015625 C1.0259375 1.94480469 0.520625 1.47945312 0 1 C0 0.67 0 0.34 0 0 Z " fill="#F1320E" transform="translate(335,622)"/>
<path d="M0 0 C3.98069267 2.87494471 6.43571997 5.82117329 9 10 C4.71095765 8.4114658 2.67654474 5.56872632 0 2 C0 1.34 0 0.68 0 0 Z " fill="#F32D09" transform="translate(376,507)"/>
<path d="M0 0 C0.99 0.33 1.98 0.66 3 1 C1.29374499 3.78388975 0.52373261 4.85384206 -2.6875 5.75 C-3.8321875 5.87375 -3.8321875 5.87375 -5 6 C-3.35 4.02 -1.7 2.04 0 0 Z " fill="#AF2810" transform="translate(466,468)"/>
<path d="M0 0 C0.66 0 1.32 0 2 0 C2 0.66 2 1.32 2 2 C2.66 2.33 3.32 2.66 4 3 C-2.625 6.125 -2.625 6.125 -6 5 C-4.02 4.01 -2.04 3.02 0 2 C0 1.34 0 0.68 0 0 Z " fill="#D32308" transform="translate(425,278)"/>
<path d="M0 0 C2.64752004 2.57784846 4.94432065 4.91648098 7 8 C6.01 8.33 5.02 8.66 4 9 C3.54625 8.236875 3.0925 7.47375 2.625 6.6875 C1.46175508 4.76367186 0.2470585 2.87058776 -1 1 C-0.67 0.67 -0.34 0.34 0 0 Z " fill="#E7300F" transform="translate(291,407)"/>
<path d="M0 0 C0.33 0.99 0.66 1.98 1 3 C-2.75 6 -2.75 6 -5 6 C-3.63016497 2.83884224 -3.0109362 2.0072908 0 0 Z " fill="#B22209" transform="translate(391,535)"/>
<path d="M0 0 C0.33 1.32 0.66 2.64 1 4 C-0.32 4.99 -1.64 5.98 -3 7 C-3.66 6.67 -4.32 6.34 -5 6 C-3.35 4.02 -1.7 2.04 0 0 Z " fill="#9F2208" transform="translate(269,153)"/>
<path d="M0 0 C1.32 0.33 2.64 0.66 4 1 C4 1.66 4 2.32 4 3 C5.32 3.66 6.64 4.32 8 5 C7.34 5.66 6.68 6.32 6 7 C4.02 4.69 2.04 2.38 0 0 Z " fill="#F13010" transform="translate(285,581)"/>
<path d="M0 0 C0.99 0.33 1.98 0.66 3 1 C1.35 2.98 -0.3 4.96 -2 7 C-2.33 5.68 -2.66 4.36 -3 3 C-2.01 3 -1.02 3 0 3 C0 2.01 0 1.02 0 0 Z " fill="#A42A13" transform="translate(513,485)"/>
<path d="M0 0 C0 3 0 3 -1.375 4.6875 C-3 6 -3 6 -5 6 C-5 4.68 -5 3.36 -5 2 C-2 0 -2 0 0 0 Z " fill="#B42708" transform="translate(495,316)"/>
<path d="M0 0 C0.66 0.99 1.32 1.98 2 3 C-2.75 6 -2.75 6 -5 6 C-5 5.34 -5 4.68 -5 4 C-3.37373596 2.61767557 -1.7074998 1.28062485 0 0 Z " fill="#BB2908" transform="translate(445,265)"/>
<path d="M0 0 C0.99 0.33 1.98 0.66 3 1 C-1.75 5 -1.75 5 -4 5 C-2.25 1.125 -2.25 1.125 0 0 Z " fill="#C82607" transform="translate(477,242)"/>
<path d="M0 0 C0.75 1.75 0.75 1.75 1 4 C-0.9375 6.25 -0.9375 6.25 -3 8 C-3.33 7.01 -3.66 6.02 -4 5 C-2.0625 2.3125 -2.0625 2.3125 0 0 Z " fill="#C22509" transform="translate(318,229)"/>
<path d="M0 0 C0.66 0.66 1.32 1.32 2 2 C0.35 3.65 -1.3 5.3 -3 7 C-2.25 2.25 -2.25 2.25 0 0 Z " fill="#B3290A" transform="translate(322,225)"/>
<path d="M0 0 C0.33 0 0.66 0 1 0 C1.125 2.375 1.125 2.375 1 5 C0.34 5.66 -0.32 6.32 -1 7 C-1.99 6.67 -2.98 6.34 -4 6 C-2.69593116 3.98079663 -1.36176581 1.98075027 0 0 Z " fill="#991E07" transform="translate(239,191)"/>
<path d="" fill="#CA0000" transform="translate(0,0)"/>
<path d="M0 0 C2 1 2 1 2 1 Z " fill="#CE5425" transform="translate(218,531)"/>
<path d="" fill="#BA0000" transform="translate(0,0)"/>
<path d="" fill="#BA0000" transform="translate(0,0)"/>
<path d="" fill="#BA5D00" transform="translate(0,0)"/>
<path d="" fill="#BA3E00" transform="translate(0,0)"/>
<path d="" fill="#BA5D00" transform="translate(0,0)"/>
<path d="" fill="#BA5D00" transform="translate(0,0)"/>
<path d="" fill="#BA0000" transform="translate(0,0)"/>
<path d="" fill="#BA5D00" transform="translate(0,0)"/>
<path d="" fill="#BA0000" transform="translate(0,0)"/>
<path d="" fill="#BA0000" transform="translate(0,0)"/>
<path d="" fill="#BA0000" transform="translate(0,0)"/>
<path d="" fill="#BA0000" transform="translate(0,0)"/>
<path d="" fill="#BA0000" transform="translate(0,0)"/>
<path d="" fill="#BA0000" transform="translate(0,0)"/>
<path d="" fill="#BA0000" transform="translate(0,0)"/>
<path d="" fill="#BA0000" transform="translate(0,0)"/>
<path d="" fill="#BA0000" transform="translate(0,0)"/>
<path d="" fill="#BA0000" transform="translate(0,0)"/>
<path d="" fill="#BA0000" transform="translate(0,0)"/>
<path d="" fill="#BA3E00" transform="translate(0,0)"/>
<path d="" fill="#BA0000" transform="translate(0,0)"/>
<path d="" fill="#BA0000" transform="translate(0,0)"/>
<path d="" fill="#BA0000" transform="translate(0,0)"/>
<path d="" fill="#BA0000" transform="translate(0,0)"/>
<path d="" fill="#BA0000" transform="translate(0,0)"/>
<path d="" fill="#BA3E00" transform="translate(0,0)"/>
<path d="" fill="#BA5D00" transform="translate(0,0)"/>
<path d="" fill="#BA0000" transform="translate(0,0)"/>
<path d="" fill="#BA0000" transform="translate(0,0)"/>
<path d="" fill="#BA5D00" transform="translate(0,0)"/>
<path d="" fill="#BA3E00" transform="translate(0,0)"/>
<path d="" fill="#BA3E00" transform="translate(0,0)"/>
<path d="" fill="#BA5D00" transform="translate(0,0)"/>
<path d="" fill="#BA0000" transform="translate(0,0)"/>
<path d="" fill="#BA5D00" transform="translate(0,0)"/>
<path d="" fill="#BA0000" transform="translate(0,0)"/>
<path d="" fill="#BA5D00" transform="translate(0,0)"/>
<path d="" fill="#BA3E00" transform="translate(0,0)"/>
<path d="" fill="#BF0000" transform="translate(0,0)"/>
<path d="" fill="#BA0000" transform="translate(0,0)"/>
<path d="" fill="#BA3E00" transform="translate(0,0)"/>
<path d="" fill="#BA0000" transform="translate(0,0)"/>
<path d="" fill="#BA0000" transform="translate(0,0)"/>
<path d="" fill="#BA0000" transform="translate(0,0)"/>
<path d="" fill="#BA0000" transform="translate(0,0)"/>
<path d="" fill="#BA3E3E" transform="translate(0,0)"/>
<path d="" fill="#BA5D00" transform="translate(0,0)"/>
<path d="" fill="#BA0000" transform="translate(0,0)"/>
<path d="" fill="#BA0000" transform="translate(0,0)"/>
<path d="" fill="#BF0000" transform="translate(0,0)"/>
<path d="" fill="#BA5D00" transform="translate(0,0)"/>
<path d="" fill="#BA0000" transform="translate(0,0)"/>
<path d="" fill="#BA0000" transform="translate(0,0)"/>
</svg>
